<?xml version="1.0" encoding="UTF-8"?>
<svg id="Camada_1" xmlns="http://www.w3.org/2000/svg" version="1.1" viewBox="0 0 152 114">
  <!-- Generator: Adobe Illustrator 29.0.1, SVG Export Plug-In . SVG Version: 2.1.0 Build 192)  -->
  <defs>
    <style>
      .st0 {
        fill: #747474;
        fill-rule: evenodd;
      }
    </style>
  </defs>
  <path class="st0" d="M94.2,58.2c11.4,0,20.7,9.3,20.7,20.7s-9.3,20.7-20.7,20.7-20.7-9.3-20.7-20.7,9.3-20.7,20.7-20.7h0ZM32.1,56.6l-6.3,5.6c-2.2-3.1-4.5-4.6-6.8-4.6s-2,.3-2.7.9c-.7.6-1.1,1.3-1.1,2s.2,1.5.8,2.1c.7.9,2.8,2.8,6.3,5.8,3.3,2.7,5.2,4.4,5.9,5.2,1.7,1.7,3,3.4,3.7,5,.7,1.6,1.1,3.3,1.1,5.2,0,3.7-1.3,6.7-3.8,9.1-2.5,2.4-5.9,3.6-10,3.6s-6-.8-8.3-2.3c-2.4-1.6-4.4-4-6.1-7.4l7.2-4.3c2.2,4,4.7,5.9,7.5,5.9s2.7-.4,3.7-1.3c1-.9,1.5-1.8,1.5-3s-.4-2-1.1-3c-.7-1-2.4-2.6-5-4.7-4.9-4-8-7-9.5-9.2-1.4-2.2-2.1-4.3-2.1-6.5,0-3.1,1.2-5.8,3.5-8,2.4-2.2,5.3-3.3,8.8-3.3s4.4.5,6.4,1.6c2,1,4.2,2.9,6.6,5.7h0ZM6.9,4.1h3.7c6.3,0,11,.8,14.1,2.3,3.1,1.6,5.6,4.1,7.6,7.6,2,3.5,3,7.6,3,12.3s-.6,6.4-1.7,9.2c-1.1,2.8-2.6,5.1-4.6,7-2,1.8-4.1,3.1-6.3,3.8-2.3.7-6.2,1.1-11.8,1.1H.9V10.2c0-3.4,2.7-6.1,6.1-6.1h0ZM9.1,12.1v27.4h3.8c3.8,0,6.5-.4,8.2-1.3,1.7-.9,3.1-2.3,4.2-4.4,1.1-2,1.6-4.6,1.6-7.6,0-4.6-1.3-8.2-3.9-10.7-2.3-2.3-6-3.4-11.2-3.4h-2.8ZM147.3,7.6c0,.7-.1,1.3-.4,1.9-.3.6-.6,1.1-1,1.5-.4.4-.9.8-1.5,1-.6.2-1.2.4-1.9.4s-1.3-.1-1.9-.4c-.6-.2-1.1-.6-1.5-1-.4-.4-.8-.9-1-1.5-.2-.6-.4-1.2-.4-1.9s.1-1.3.4-1.9c.3-.6.6-1.1,1-1.5.4-.4.9-.8,1.5-1,.6-.2,1.2-.4,1.9-.4s1.3.1,1.9.4c.6.2,1.1.6,1.5,1,.4.4.8.9,1,1.5.2.6.4,1.2.4,1.9h0ZM145.9,7.7c0-.5,0-1-.3-1.4-.2-.4-.4-.8-.7-1.1-.3-.3-.7-.6-1.1-.7-.4-.2-.9-.3-1.4-.3s-1,0-1.4.3c-.4.2-.8.4-1.1.7-.3.3-.5.7-.7,1.1-.2.4-.3.9-.3,1.4s0,1,.3,1.4c.2.4.4.8.7,1.1.3.3.7.6,1.1.7.4.2.9.3,1.4.3s1,0,1.4-.3c.4-.2.8-.4,1.1-.8.3-.3.5-.7.7-1.1.2-.4.3-.9.3-1.4h0ZM144.7,9.8c0,0,0-.2,0-.4l-.2-.7c-.1-.3-.2-.5-.4-.6-.2-.1-.3-.2-.5-.3.3,0,.6-.2.8-.5.2-.2.3-.5.3-.8s0-.5-.2-.7c-.1-.2-.3-.3-.4-.4-.2-.1-.4-.2-.6-.2-.2,0-.5,0-.8,0h-1.5c-.2,0-.4,0-.5.2-.1.1-.2.3-.2.5v4c0,0,0,.2.2.2,0,0,.3,0,.6,0s.5,0,.6,0c0,0,.1-.1.1-.2v-1.5h.3c.2,0,.3,0,.4.1,0,0,.2.3.3.5l.2.8c0,0,0,.1,0,.2,0,0,0,0,.1,0,0,0,.1,0,.2,0,.1,0,.2,0,.4,0s.3,0,.4,0c.1,0,.2,0,.3,0,0,0,.1,0,.1,0,0,0,0,0,0,0h0ZM143,6.6c0,0,0-.1,0-.2,0,0,0-.1-.1-.2,0,0-.1,0-.2-.1,0,0-.2,0-.3,0h-.4v1.1h.4c.3,0,.5,0,.6-.2,0-.1.2-.2.2-.4h0ZM106,51.5v-18.2c0-3.1.3-5.3.8-6.8.6-1.4,1.4-2.5,2.5-3.3,1.1-.8,2.3-1.2,3.7-1.2s2.3.3,3.1.9c.8.6,1.5,1.6,1.9,2.9.4,1.3.6,3.4.6,6.2v25.8c1.1-.9,2.5-1.5,4-1.5s3,.6,4,1.5v-24.8c0-3.1.3-5.3.8-6.7.5-1.4,1.4-2.5,2.5-3.3,1.1-.8,2.4-1.2,3.8-1.2s3.2.6,4.1,1.9c.9,1.3,1.4,3.8,1.4,7.4v28c3,.2,5.7,1.1,8.1,2.6V28.7c0-3.9-.4-6.7-1.1-8.4-.8-1.7-2-3.1-3.8-4.2-1.7-1.1-3.8-1.6-6.1-1.6s-4.3.5-6.1,1.5c-1.9,1-3.4,2.4-4.7,4.3-1-1.9-2.3-3.4-3.9-4.3-1.6-1-3.4-1.5-5.5-1.5s-3.9.4-5.5,1.1c-1.7.7-3.2,1.9-4.6,3.4v-3.8h-8.1v36.1h0c0,2.2,1.8,4,4,4s4-1.8,4-4h0ZM126.7,107.3c0,2.2-1.8,4-4,4s-4-1.8-4-4v-43.1c0-2.2,1.8-4,4-4s4,1.8,4,4h0v2.6c1.5-1.4,3-2.5,4.7-3.2,1.7-.7,3.5-1.1,5.4-1.1,4.2,0,7.8,1.6,10.7,4.8,2.9,3.2,4.4,7.2,4.4,12.2s-1.5,8.8-4.6,12c-3,3.2-6.6,4.8-10.8,4.8s-3.6-.3-5.2-1c-1.6-.7-3.2-1.7-4.8-3.2v15.2h0ZM48.3,44.2v22c1.6-1.4,3.2-2.4,4.8-3.1,1.6-.7,3.2-1,4.8-1,3.2,0,5.9,1.1,8.1,3.3,1.9,1.9,2.8,4.7,2.8,8.4v21.3h-7.9v-14.1c0-3.7-.2-6.2-.5-7.6-.4-1.3-1-2.3-1.8-3-.8-.6-1.9-1-3.2-1s-3,.5-4.2,1.6c-1.2,1.1-2,2.6-2.4,4.4-.2,1-.4,3.2-.4,6.6v12.9h-8.1v-50.9c1.1.9,2.5,1.5,4,1.5s3-.6,4-1.5h0ZM135.2,69.9c-2.5,0-4.7.9-6.3,2.6-1.7,1.7-2.5,4-2.5,6.8s.8,5.2,2.5,6.9c1.7,1.8,3.8,2.6,6.3,2.6s4.5-.9,6.2-2.7c1.7-1.8,2.5-4.1,2.5-6.9s-.8-5-2.5-6.8c-1.7-1.8-3.7-2.6-6.3-2.6h0ZM48.3,38.2c0,2.2-1.8,4-4,4s-4-1.8-4-4h0V15.3h7v4.1c.7-1.6,1.7-2.8,3-3.6,1.2-.8,2.6-1.2,4.1-1.2s2.1.3,3.3.8l-2.5,7c-.9-.5-1.7-.7-2.3-.7-1.2,0-2.3.8-3.1,2.3-.9,1.5-1.3,4.5-1.3,9v1.6s0,3.7,0,3.7h0ZM61.5,15.3v21.6c0,5.1.3,8.7,1,10.6.9,2.8,2.4,5,4.6,6.6,2.2,1.6,5,2.4,8.6,2.4s6-.7,8.1-2c2.1-1.3,3.7-3.3,4.8-5.8.9-2.1,1.3-5.9,1.3-11.5V15.3h-8.1v24c0,3-.2,5-.5,5.9-.4,1.2-1.2,2.2-2.1,2.8-.9.6-2.1,1-3.4,1s-2.5-.3-3.4-1c-.9-.6-1.6-1.6-2-2.7-.4-1.2-.6-3.3-.6-6.3V15.3h-8.2ZM94.2,65.9c-7.1,0-12.9,5.8-12.9,12.9s5.8,12.9,12.9,12.9,12.9-5.8,12.9-12.9-5.8-12.9-12.9-12.9Z"/>
</svg>