<?xml version="1.0" encoding="UTF-8"?>
<svg xmlns="http://www.w3.org/2000/svg" version="1.1" viewBox="0 0 152 114">
  <defs>
    <style>
      .cls-1 {
        fill: #f18c7c;
      }

      .cls-2 {
        fill: #878888;
      }

      .cls-3 {
        fill: #e1dcef;
      }

      .cls-4 {
        fill: #7fc7ef;
      }

      .cls-5 {
        fill: #a3a3a3;
      }

      .cls-6 {
        fill: #ac9fcd;
      }

      .cls-7 {
        fill: #f8bea2;
      }

      .cls-8 {
        fill: #acd6b9;
      }

      .cls-9 {
        fill: #f5a696;
      }

      .cls-10 {
        fill: #f29384;
      }

      .cls-11 {
        fill: #bcdff7;
      }

      .cls-12 {
        fill: #d8ecfb;
      }

      .cls-13 {
        fill: #7c7c7d;
      }

      .cls-14 {
        fill: #bedff7;
      }

      .cls-15 {
        fill: #a5a5a5;
      }

      .cls-16 {
        fill: #ec6438;
      }

      .cls-17 {
        fill: #727272;
      }

      .cls-18 {
        fill: #85c8f0;
      }

      .cls-19 {
        fill: #76c4ef;
      }

      .cls-20 {
        fill: #f5a999;
      }

      .cls-21 {
        fill: #92cba5;
      }
    </style>
  </defs>
  <!-- Generator: Adobe Illustrator 28.7.1, SVG Export Plug-In . SVG Version: 1.2.0 Build 142)  -->
  <g>
    <g id="Camada_1">
      <g>
        <path class="cls-13" d="M55,0h19.2c.2.2.2.5.2.8,0,2.2,0,4.5,0,6.7,0,9.9,0,19.7,0,29.6,0,.3,0,.7-.1,1-.2.2-.4.1-.7.2-6.2,0-12.3,0-18.5,0-.2,0-.3,0-.5,0-.3,0-.5,0-.8,0-2.7-.2-5.3-.9-7.7-2.3-1.8-1-3.4-2.2-4.7-3.7-2.9-3.1-4.7-6.8-5.1-11.1-.3-3.1,0-6.1,1.2-9,1.9-4.7,5.2-8.2,9.8-10.4,1.6-.7,3.2-1.2,4.9-1.5.5,0,.9,0,1.4-.1h.9c.2,0,.4,0,.6,0Z"/>
        <path class="cls-5" d="M74.1,38c0-.2,0-.4,0-.7,0-12.4,0-24.9,0-37.3h19.4c.3,0,.6,0,.9,0h.5c.6.1,1.1,0,1.7.2,3.3.6,6.3,2,8.9,4.2,2.7,2.3,4.6,5.1,5.8,8.4.5,1.5.9,3,.9,4.6,0,0,0,.1,0,.2v.2c0,.2,0,.4,0,.6,0,.4,0,.8,0,1.2,0,.2,0,.5,0,.7v.3c0,1.4-.3,2.7-.7,4-.8,2.5-2,4.7-3.7,6.7-1.8,2.1-3.9,3.7-6.3,4.9-2.1,1-4.4,1.7-6.8,1.8-.2,0-.3,0-.5,0-.7,0-1.5,0-2.2,0-.2,0-.4,0-.6,0-5.4,0-10.8,0-16.1,0-.3,0-.6,0-.8,0,0,0-.1,0-.2-.1Z"/>
        <path class="cls-17" d="M74.1,76c0,.2,0,.3,0,.5,0,6.1,0,12.2,0,18.4,0,5.5-2,10.2-6,14-3,2.8-6.6,4.5-10.7,5-.3,0-.7,0-1,.2h-.2c-.2-.1-.5,0-.7,0-.3,0-.6,0-.9,0-.2,0-.5,0-.7,0h-.3c-1-.1-2.1-.2-3.1-.4-3-.7-5.6-2.1-7.9-4.1-2-1.7-3.6-3.8-4.8-6.1-1-2-1.6-4.1-1.8-6.3-.2-3.3,0-6.5,1.4-9.5,1.8-4.2,4.7-7.4,8.8-9.5,2.1-1.1,4.2-1.7,6.5-2,.2,0,.3,0,.5,0,.2,0,.4,0,.6,0,.3,0,.6,0,.9,0,6.2,0,12.3,0,18.5,0,.2,0,.5,0,.7.1Z"/>
        <path class="cls-2" d="M91.9,38c.8,0,1.6,0,2.3,0,2,0,3.8.4,5.6,1.1,2.9,1.1,5.4,2.8,7.4,5.1,2.5,2.8,4.1,6.1,4.7,9.9,0,.5,0,1,0,1.5,0,.2,0,.3,0,.5,0,.3,0,.6,0,.9v.2c0,.3,0,.7,0,1v.5c-.2.7-.2,1.4-.4,2-1.4,7.5-7.5,13.6-15,15-6,1.1-11.3-.3-15.9-4.3-3.6-3-5.7-6.9-6.4-11.6,0-.4,0-.8-.1-1.2-.1-.1-.1-.3-.1-.5,0-.2,0-.5,0-.7,0-.3,0-.5,0-.8,0-.3,0-.5,0-.8,0-.2,0-.4,0-.6.2-1.2.4-2.4.7-3.6.9-3,2.4-5.7,4.7-8,2.8-2.9,6.2-4.6,10-5.5.6-.1,1.2-.2,1.8-.2.2,0,.4,0,.6,0Z"/>
        <path class="cls-1" d="M112,19.7c0-.4,0-.9,0-1.3,0,0,0,0,0,0v1.3s0,0,0,0Z"/>
        <path class="cls-4" d="M112.1,58.1c-.2-.3-.1-.7,0-1v1Z"/>
        <path class="cls-4" d="M112.1,56.9c-.2-.3,0-.6,0-1,0,0,0,0,0,0v.9Z"/>
        <path class="cls-21" d="M54.7,113.9c.3,0,.6,0,1,0,0,0,0,0,0,0,0,0,0,0,0,0h-.9s0,0,0,0c0,0,0,0,0,0Z"/>
        <path class="cls-10" d="M94.3,0c-.3.2-.6.1-.9,0h.9Z"/>
        <path class="cls-9" d="M112,19.7s0,0,0,0v.7c-.2-.2,0-.4,0-.7Z"/>
        <path class="cls-8" d="M54.7,113.9s0,0,0,0h-.7c.2-.2.4,0,.7,0Z"/>
        <path class="cls-8" d="M55.6,114s0,0,0,0c.2,0,.5-.1.7,0h-.7Z"/>
        <path class="cls-16" d="M55,0c-.2.1-.4.1-.6,0h.6Z"/>
        <path class="cls-20" d="M112.1,18.3s0,0,0,0c0-.2,0-.4,0-.6v.6Z"/>
        <path class="cls-11" d="M112.1,56s0,0,0,0c0-.2,0-.3,0-.5,0,0,0,0,0,0v.5Z"/>
        <path class="cls-15" d="M53.6,75.9c-8.6-.7-15.7-7.2-17.2-15.8-1.7-10.3,5.2-20,15.4-21.8.6-.1,1.2-.2,1.8-.2.2-.2.5,0,.7,0,6.6,0,13.1,0,19.7,0,0,0,0,0,0,0,.2.2.2.4.2.6,0,4.9,0,9.8,0,14.7,0,.6,0,1.3-.1,1.9v.7c0,.3,0,.5,0,.8,0,.3,0,.6,0,.9,0,.2,0,.4,0,.7,0,.2,0,.3,0,.5,0,1.7,0,3.4,0,5.1,0,3.9,0,7.8,0,11.7,0,.2,0,.4,0,.6-6.2,0-12.4,0-18.7,0-.2,0-.4,0-.6,0-.3,0-.6,0-.9,0-.1,0-.2,0-.3,0Z"/>
        <path class="cls-14" d="M74.1,58.6c0-.2,0-.3,0-.5,0,0,0,0,0,0,0,.2,0,.3,0,.5,0,0,0,0,0,0Z"/>
        <path class="cls-7" d="M54.4,38c-.2,0-.5,0-.7,0,0,0,0,0,0-.1.3,0,.5,0,.8,0Z"/>
        <path class="cls-12" d="M91.3,38.1s0,0,0,0c.2,0,.4,0,.6,0-.2.1-.4,0-.6,0Z"/>
        <path class="cls-6" d="M53.9,75.9c.3,0,.6,0,1,0-.3,0-.6,0-.9,0,0,0,0,0,0,0,0,0,0,0,0,0Z"/>
        <path class="cls-3" d="M53.9,75.9s0,0,0,0c-.2,0-.4.1-.6,0,0,0,.2,0,.3-.1,0,0,.2,0,.3,0Z"/>
        <path class="cls-19" d="M74.1,56.6c0-.3,0-.5,0-.8.1.3.1.5,0,.8Z"/>
        <path class="cls-18" d="M74.2,58.1s0,0,0,0c0-.2,0-.4,0-.7.2.2,0,.4,0,.7Z"/>
      </g>
    </g>
  </g>
</svg>