<?xml version="1.0" encoding="UTF-8"?>
<svg xmlns="http://www.w3.org/2000/svg" version="1.1" viewBox="0 0 152 114">
  <defs>
    <style>
      .cls-1 {
        fill: #747474;
      }
    </style>
  </defs>
  <!-- Generator: Adobe Illustrator 28.7.1, SVG Export Plug-In . SVG Version: 1.2.0 Build 142)  -->
  <g>
    <g id="Camada_1">
      <g>
        <path class="cls-1" d="M78.1,75.6c.6,0,1-.6.8-1.4,0,0,0,0,0,0,.3.8-.2,1.4-.8,1.4Z"/>
        <path class="cls-1" d="M63.5,57.7s0,0,0,0c0,0,.1,0,.2.1,0,0-.1,0-.2-.1Z"/>
        <path class="cls-1" d="M77.7,50.3s0,0,0,0c-.8.6-.8,1.4-.4,1.9-.4-.5-.4-1.3.4-1.9Z"/>
        <path class="cls-1" d="M91.5,76.2c-.4-.1-.9.1-1.4.7-.2-.1-.4-.3-.6-.5.2.2.4.3.6.5.5-.6,1-.8,1.4-.7Z"/>
        <path class="cls-1" d="M79.6,28.5c0,0,0,.2,0,.3,0,0,0-.2,0-.3Z"/>
        <path class="cls-1" d="M79.1,74.4c0,0-.2-.2-.3-.2,0,0,0,0,0,0,0,0,.2.2.3.2Z"/>
        <path class="cls-1" d="M62.2,50.2c.9,0,1.3,0,1.7.5-.4-.5-.8-.6-1.7-.5-.3-.4-.7-.7-1.2-.8.5,0,.9.3,1.2.8Z"/>
        <path class="cls-1" d="M65.3,53.9c.2-.3.5-.6.7-.9-.2.3-.5.6-.7.9,0,0,0,0,0,0Z"/>
        <path class="cls-1" d="M71,82.9c-.3-.1-.5-.3-.8-.4.3.1.5.3.8.4h0Z"/>
        <polygon class="cls-1" points="61 74.3 61 74.3 61 74.3 61 74.3"/>
        <path class="cls-1" d="M60.9,73.9c-.2-.9-.9-1.2-2.1-1,1.2-.2,1.9,0,2.1,1Z"/>
        <polygon class="cls-1" points="66.7 55.8 66.7 55.8 66.7 55.8 66.7 55.8 66.7 55.8 66.7 55.8 66.7 55.8"/>
        <path class="cls-1" d="M79.1,27.5h0s0,0,0,0c0,0,0,0,0,0,0,0,0,0,0,0,0,0,0,0,0,0,0,0,0,0,0,0,0,0,0,0,0,0Z"/>
        <path class="cls-1" d="M133.6,16.9c-1.2-6.2-4.5-10.8-9.9-14.1-2.7-1.6-5.7-2.5-8.8-2.8-.1,0-.2,0-.4,0H36.6c-.8.1-1.7.2-2.5.4-4.3.8-8,2.8-11,5.9-3.1,3.2-5,7-5.7,11.4-.2,1.1-.2,2.1-.2,3.2,0,24.1,0,48.1,0,72.2,0,9,4.4,15.4,12.5,19.2,2.6,1.2,5.3,1.7,8.2,1.7,25.1,0,50.3,0,75.4,0,9.1,0,16.9-5.7,19.8-14.4.5-1.5.8-3.1.9-4.7,0-.2,0-.3,0-.5V19.5c-.1-.9-.2-1.7-.4-2.6ZM106.4,74.9c0,.6-.5,1-1.1,1-.6,0-1.1-.5-1.1-1.1,0-.6.5-1,1.1-1,.6,0,1.1.5,1,1.1ZM105,71.4c0,.6-.6,1.1-1.2,1.1-.6,0-1.1-.5-1.1-1.2,0-.6.5-1.1,1.1-1.1.6,0,1.1.5,1.1,1.2ZM93.9,76.5c.6,0,1.1.5,1.1,1.1,0,.6-.5,1.1-1.1,1.1-.6,0-1.1-.5-1.1-1.1,0-.6.5-1.1,1.1-1.1ZM91.8,75.6c-.2-.5-.1-1.1.3-1.4.4-.4,1-.4,1.6,0,0-.3.1-.6.3-.9.2-.2.5-.4.8-.5.5-.1,1,.2,1.2.6.2.5,0,1-.3,1.4-.4.4-.9.4-1.6,0,0,.9-.4,1.3-1,1.4-.5,0-1-.2-1.3-.6ZM95,81.6c0,.6-.4,1.1-1,1.1-.6,0-1.1-.4-1.1-1,0-.6.4-1,1-1.1.6,0,1.1.4,1.1,1ZM94.5,80c0-.6.5-1.1,1-1,.5,0,1,.5,1,1,0,.6-.4,1.1-1,1.1-.6,0-1-.4-1-1ZM96,77.9c-.6,0-1.1-.5-1.1-1.1,0-.6.5-1.1,1.1-1.1.6,0,1.1.5,1.1,1.1,0,.6-.5,1.1-1.1,1.1ZM96.3,73.9c0-.6.5-1.1,1.1-1.1.6,0,1.1.5,1.1,1.1,0,.6-.5,1.1-1.2,1.1-.6,0-1.1-.5-1.1-1.1ZM100.1,71.1c0-.6.5-1.1,1.2-1.1.6,0,1.1.6,1.1,1.2,0,.6-.5,1.1-1.2,1.1-.6,0-1.1-.5-1.1-1.2ZM101.1,74c0,.6-.5,1.1-1.1,1.1-.6,0-1.1-.5-1.1-1.1,0-.6.5-1.2,1.2-1.1.6,0,1.1.5,1.1,1.1ZM99.9,69c-.7,0-1.2-.6-1.2-1.2,0-.7.5-1.2,1.2-1.2.7,0,1.2.5,1.2,1.2,0,.7-.6,1.2-1.2,1.2ZM99.8,70.9c0,.7-.5,1.2-1.2,1.2-.6,0-1.2-.5-1.2-1.2,0-.6.5-1.2,1.2-1.2.7,0,1.2.5,1.2,1.2ZM98.6,75.7c.6,0,1.1.5,1.1,1.1,0,.6-.5,1.1-1.1,1.1-.6,0-1.1-.5-1.1-1.1,0-.6.5-1.1,1.1-1.1ZM100.1,78.8c.6,0,1,.5,1,1.1,0,.6-.5,1-1,1-.6,0-1-.5-1-1,0-.6.5-1,1-1ZM100.1,77.1c0-.6.5-1,1.1-1,.6,0,1.1.5,1.1,1.1,0,.6-.5,1-1.1,1-.6,0-1.1-.5-1.1-1.1ZM101.6,74.3c0-.6.5-1.1,1.1-1.1.6,0,1.1.5,1.1,1.1,0,.6-.5,1.1-1.1,1.1-.6,0-1.1-.5-1.1-1.1ZM103.6,67.9c0,.6-.5,1.2-1.2,1.2-.6,0-1.1-.5-1.2-1.1,0-.6.5-1.2,1.2-1.2.6,0,1.1.5,1.2,1.1ZM102.2,64.5c0,.7-.6,1.2-1.2,1.2-.6,0-1.2-.6-1.2-1.2,0-.6.6-1.2,1.2-1.2.7,0,1.2.6,1.2,1.2ZM82,26.9c.3-.3.7-.5,1.1-.6.8-.2,1.6.6,1.7,1.5,0,1-.7,1.7-2,1.6.3,1.5-.5,2.4-1.9,2.2.3.6.4,1.2,0,1.8-.4.6-1,.7-1.6.6.1.4.3.8.3,1.2,0,.4-.3.8-.6,1.1-.5.5-1.3.4-1.8,0-.5-.4-.7-1.1-.5-1.7.3-.7.9-1.1,1.8-1-.9-1.5-.4-2.5,1.5-2.7-.6-1.5.4-2.6,1.9-2.4-.2-.6-.3-1.2.2-1.6ZM77.1,70.6c-.5,0-.8-.4-.8-.8,0-.4.4-.8.8-.8.4,0,.8.3.8.8,0,.4-.3.8-.8.8ZM78.7,70.7c.5,0,.8.4.8.9,0,.5-.4.8-.9.8-.4,0-.8-.5-.8-.9,0-.5.4-.8.9-.8ZM76.8,71.3c.5,0,1,.5,1,1,0,.6-.5,1-1.1,1-.6,0-1-.5-1-1,0-.6.5-1,1-1ZM62.2,70.9c.7,0,1.2.6,1.2,1.2,0,.7-.5,1.2-1.2,1.2-.7,0-1.2-.5-1.3-1.2,0-.7.6-1.2,1.2-1.2ZM60.4,71.4c-.7,0-1.2-.6-1.2-1.3,0-.7.5-1.2,1.2-1.2.7,0,1.2.6,1.2,1.2,0,.7-.6,1.2-1.3,1.2ZM63.1,69.6c-.6,0-1.1-.5-1.1-1.1,0-.6.5-1.1,1.1-1.1.6,0,1.1.5,1.1,1.1,0,.6-.5,1.1-1.1,1.1ZM65,69.1c.6,0,1.1.5,1.1,1.1,0,.6-.5,1.1-1,1.1-.6,0-1.1-.5-1.1-1.1,0-.6.4-1.1,1.1-1.1ZM65.9,67.7c-.5,0-.8-.3-.8-.8,0-.4.3-.8.8-.8.4,0,.8.3.8.7,0,.4-.3.8-.7.8ZM66.8,64.7c0,.4-.3.8-.8.8-.4,0-.8-.3-.8-.8,0-.4.4-.8.8-.8.4,0,.8.4.8.8ZM66.2,62.5c0-.4.3-.8.8-.8.4,0,.8.3.8.8,0,.4-.4.8-.8.8-.4,0-.8-.4-.8-.8ZM67.6,69.1c.6,0,1.1.5,1.1,1.1,0,.6-.5,1.1-1.1,1.1-.6,0-1.1-.5-1.1-1.1,0-.6.5-1.1,1.1-1.1ZM68,68.6c-.4,0-.8-.3-.8-.7,0-.4.4-.8.8-.8.4,0,.8.4.8.8,0,.4-.3.8-.8.8ZM67.9,61.2c-.5,0-.8-.4-.8-.9,0-.4.4-.8.8-.8.5,0,.8.4.8.9,0,.4-.4.8-.8.8ZM68.1,58.2c0-.4.4-.8.8-.8.5,0,.8.4.8.8,0,.5-.3.8-.8.9-.5,0-.9-.4-.9-.8ZM73.9,48.3c-.5,0-1-.5-1-1,0-.5.5-1,1-1,.5,0,.9.5.9,1,0,.5-.5,1-1,.9ZM75.1,67.7c.4,0,.8.4.8.8,0,.4-.4.8-.8.8-.4,0-.8-.4-.8-.8,0-.4.4-.8.8-.7ZM72.7,67.1c.4,0,.8.3.8.8,0,.4-.3.8-.8.8-.4,0-.8-.4-.8-.8,0-.4.3-.8.8-.8ZM71.8,52.5c-.5,0-.9-.4-.9-.9,0-.5.4-.9.9-.9.5,0,.9.4.9.9,0,.5-.4.9-.9.9ZM72.8,50.4c-.5,0-.9-.4-.9-.9,0-.5.4-.9,1-.9.5,0,.9.4.9,1,0,.5-.4.9-1,.9ZM72.6,46.1c-.6,0-1.1-.5-1.1-1,0-.6.5-1.1,1.1-1.1.6,0,1.1.5,1.1,1,0,.6-.5,1.1-1.1,1.1ZM72.5,47.3c0,.6-.5,1-1.1,1.1-.6,0-1.1-.5-1.1-1.1,0-.6.5-1,1.1-1,.6,0,1.1.5,1.1,1ZM70.4,48.6c.6,0,1,.5,1,1.1,0,.6-.5,1-1,1-.6,0-1-.5-1.1-1,0-.6.5-1,1-1ZM69.4,51c.6,0,1,.4,1,1,0,.6-.4,1-1,1-.6,0-1.1-.5-1.1-1,0-.6.5-1,1-1ZM69.9,56.8c-.5,0-.9-.4-.9-.9,0-.5.4-.9.9-.8.5,0,.9.4.9.9,0,.5-.4.9-.9.8ZM71.1,67.8c0,.4-.3.8-.8.8-.4,0-.8-.3-.8-.7,0-.4.3-.8.8-.8.4,0,.8.4.8.8ZM68.4,53.3c.6,0,1,.6,1,1.1,0,.6-.5,1-1.1,1-.6,0-1-.5-1-1.1,0-.6.5-1,1.1-1ZM70.1,69.1c.6,0,1.1.5,1.1,1.1,0,.6-.5,1-1.1,1-.6,0-1.1-.5-1.1-1.1,0-.6.5-1,1.1-1.1ZM70.4,71.4c.6,0,1.2.5,1.2,1.1,0,.6-.5,1.2-1.1,1.2-.7,0-1.2-.5-1.2-1.2,0-.6.5-1.1,1.2-1.1ZM70.8,54.7c-.5,0-.9-.4-.9-.9,0-.5.4-.9.9-.9.5,0,.9.4.9.9,0,.5-.4.9-.9.9ZM72.7,69.2c.6,0,1,.5,1,1.1,0,.6-.5,1-1,1-.6,0-1-.5-1-1,0-.6.5-1.1,1-1.1ZM73.1,71.5c.6,0,1.1.4,1.1,1.1,0,.6-.5,1.1-1.1,1.1-.6,0-1.1-.5-1.1-1.1,0-.6.5-1.1,1.1-1.1ZM74,75.2c.7,0,1.2.6,1.2,1.2,0,.7-.5,1.2-1.2,1.2-.7,0-1.2-.5-1.2-1.2,0-.7.5-1.2,1.2-1.3ZM75,75.2c-.6,0-1.1-.5-1.1-1.1,0-.6.5-1.1,1.2-1.1.6,0,1.1.5,1.1,1.2,0,.6-.5,1.1-1.1,1.1ZM75.2,71.7c-.5,0-1-.5-1-1,0-.5.5-1,1-1,.5,0,1,.4,1,1,0,.5-.4,1-1,1ZM76.1,48.2c-.5,0-1-.4-1-1,0-.6.4-1,1-1.1.6,0,1,.4,1,1,0,.5-.4,1-1,1ZM74.9,45c-.6,0-1.1-.5-1.1-1.1,0-.6.5-1.1,1.1-1.1.6,0,1.1.5,1.1,1.1,0,.6-.5,1.1-1.1,1.1ZM73.9,42.2c-.7,0-1.2-.5-1.2-1.2,0-.7.6-1.3,1.3-1.3.7,0,1.2.6,1.2,1.2,0,.7-.5,1.2-1.2,1.2ZM72.2,37.9c0-.7.6-1.3,1.4-1.3.8,0,1.4.6,1.3,1.4,0,.8-.6,1.3-1.4,1.3-.7,0-1.4-.6-1.4-1.4ZM75,36.1c-.8,0-1.5-.7-1.5-1.5,0-.8.7-1.4,1.5-1.4.8,0,1.5.6,1.5,1.4,0,.8-.7,1.5-1.5,1.5ZM76.3,33.1c-.9,0-1.5-.7-1.5-1.6,0-.8.7-1.5,1.5-1.5.9,0,1.6.7,1.6,1.5,0,.8-.7,1.5-1.6,1.5ZM79.1,27.5s0,0,0,0c0,0-.2-.2-.2-.3-.6-.6-.6-1.5-.1-2.1.5-.6,1.4-.8,2.1-.4.7.4.9,1.3.6,2-.4.7-1.2,1.1-2,.8-.1,0-.2,0-.3,0,0,0,0,0,0,0h0c.2.3.5.7.5,1,0,0,0,.2,0,.3,0,0,0,.1,0,.2-.2.9-1.1,1.5-2,1.2-.9-.3-1.4-1.2-1-2.1.3-.9,1.3-1.3,2.2-.8.1,0,.2.1.3.2,0,0,0,0,0,0ZM76.3,23.9c.9,0,1.6.7,1.6,1.6,0,.9-.7,1.6-1.6,1.6-.9,0-1.6-.7-1.6-1.6,0-.9.7-1.6,1.6-1.6ZM76.1,28.6c0,.9-.7,1.6-1.6,1.6-.9,0-1.6-.7-1.6-1.6,0-.9.7-1.6,1.6-1.6.9,0,1.6.7,1.6,1.6ZM72.5,24.3c.9,0,1.6.7,1.6,1.6,0,.9-.7,1.6-1.6,1.6-.9,0-1.6-.7-1.6-1.6,0-.9.7-1.6,1.6-1.7ZM69.3,25.7c1.1.1,1.6,1,1.4,2.3.7,0,1.3,0,1.7.7.4.6.3,1.2,0,1.9,1-.3,1.7,0,2,.7.3.6.2,1.4-.3,1.9-.5.5-1.3.5-1.9.1-.7-.5-.8-1.1-.4-2.2-1.7.4-2.5-.9-2.2-2-1.4,0-2.2-.7-2.1-1.8,0-.9.9-1.6,1.8-1.5ZM66,28c1-.1,1.6.5,1.9,1.8,1.3.1,1.9.8,1.7,2,1.6.2,2,.8,1.7,2.3.6-.1,1.2-.1,1.6.4.2.3.4.7.4,1,0,.8-.8,1.5-1.6,1.3-1-.2-1.4-.9-1.1-2.1-1.4.2-2.1-.3-2.1-1.6-.5-.2-1-.2-1.4-.5-.4-.3-.5-.8-.8-1.3-.4,0-.9,0-1.3-.5-.2-.3-.4-.7-.5-1.1,0-.9.6-1.6,1.5-1.7ZM63.8,31c.8-.2,1.6.3,1.9,1.1,0,.2.2.3.4.4.8.2,1.2.7,1.4,1.6,1.2.2,1.6.6,1.7,1.8,1.3,0,2,.9,1.5,2.2.6,0,1.1,0,1.4.5.2.3.3.6.3,1,0,.7-.8,1.2-1.5,1.1-.8-.1-1.2-.8-1-1.9-1.3,0-1.7-.4-1.8-1.6-1.1.1-1.7-.4-1.9-1.4-.9,0-1.5-.3-1.8-1.2,0,0-.2-.2-.3-.2-.9-.1-1.6-.8-1.6-1.6,0-.9.5-1.6,1.4-1.8ZM61.7,34.7c.6-.4,1.4-.4,1.9.1.3.2.5.6.7.9.7,0,1.3.4,1.5,1.2,0,0,.1.2.2.2.8.1,1.3.6,1.5,1.4,1.3.4,1.5.6,1.6,1.9,1,.2,1.2.4,1.4,1.3.4-.4.8-.6,1.3-.4.3.1.5.3.7.6.3.6,0,1.3-.6,1.6-.7.3-1.3,0-1.7-1-.5.5-1,.6-1.6.4-.6-.3-.8-.8-.7-1.5-.9,0-1.5-.4-1.7-1.3-.9,0-1.4-.3-1.7-1.2-.8,0-1.4-.3-1.7-1,0,0-.3-.1-.4-.1-.8-.1-1.4-.6-1.5-1.4-.2-.8.2-1.5.8-1.9ZM60.5,38c.8-.3,1.7,0,2.1.7.1.2.3.3.6.4.7,0,1,.4,1.4,1.2,1.1.2,1.3.3,1.7,1.3.9.2,1.4.4,1.6,1,0,.2,0,.4.1.7.1,0,.3,0,.4.1s.3,0,.4.1c.3.1.5.3.7.5,0,0-.1,0-.2,0,.4,0,.8-.2,1.2-.2.3,0,.5.3.7.5.3.5.1,1.2-.4,1.5-.6.4-1.2.2-1.8-.5-.4.4-.9.6-1.5.3-.5-.3-.8-.7-.8-1.3-.8,0-1.4-.3-1.7-1.1-.8.1-1.4-.1-1.8-.8,0,0-.2-.1-.3-.1-.6,0-1.1-.2-1.5-.7,0-.1-.3-.2-.4-.2-.9,0-1.6-.6-1.8-1.5-.2-.8.3-1.6,1.1-2ZM58.9,41.4c.8-.4,1.7-.2,2.3.6,0,.1.3.2.4.2.6,0,1,.3,1.4.8,0,.1.2.3.3.3.8,0,1.3.4,1.6,1.1,1.2,0,1.6.3,1.8,1.5.6,0,1.1.2,1.3.7.4-.1.8-.3,1.2-.3.3,0,.6.2.8.4.4.5.3,1.2-.2,1.6-.6.4-1.2.3-1.8-.4-.8,1-2.2.8-2.5-.7-.8,0-1.1-.1-1.7-.9-.8.2-1.4,0-1.9-.8-.7.2-1.3,0-1.7-.6,0,0-.3-.1-.4-.1-1,0-1.7-.5-1.9-1.4-.2-.8.2-1.7.9-2ZM75.1,84.7c-.3.8-1.2,1.3-2.1,1-.9-.3-1.3-1.1-1.1-2.3-.2-.1-.4-.2-.6-.3.1.5.4,1,.3,1.4,0,.8-.7,1.5-1.5,1.6-.9.2-1.6-.2-2-1,0,0,0-.2-.1-.3-.8,1.8-2.7,1.9-3.7.4-1,1.5-2.7,1.5-3.8.1-.5.6-1,1.1-1.8,1.1-.8,0-1.4-.4-1.9-1-.5.7-1.2,1.1-2.1,1-.9,0-1.5-.6-1.8-1.3-1.8,1.3-3.8.1-3.8-1.8-2.2.4-3.5-1.7-2.5-3.4-1-.2-1.6-.7-1.8-1.7-.2-1,.2-1.8,1.1-2.3-.8-.6-1.2-1.3-.9-2.3.2-.9.9-1.4,1.8-1.6-1.1-1.7,0-3.3,1.5-3.4-.5-.7-.7-1.4-.3-2.2.4-.8,1-1.2,1.9-1.2-.6-.7-.8-1.4-.4-2.2.4-.8,1-1.2,2-1.2-.6-.7-.9-1.4-.5-2.2.4-.8,1.1-1.2,2-1.2-.7-.7-.9-1.5-.5-2.4.4-.7,1.1-1,2-1-.7-.7-1-1.4-.6-2.3.4-.9,1.1-1.2,1.9-1.1-.2-.4-.5-.8-.6-1.3-.2-1.2.8-2.2,2-2.1.1,0,.3,0,.4,0-.8-.6-1.1-1.3-.9-2.1.4-1.4,2-1.8,3.1-.8.1.1.4.2.6.3.6,0,1,.2,1.4.6,0,.1.3.2.4.2.8,0,1.3.3,1.7.9,1.1-.1,1.6.2,1.9,1.3.6,0,1.1.2,1.4.6.4-.2.8-.4,1.3-.5.2,0,.6.2.8.4.4.5.4,1.2-.1,1.6-.5.5-1.2.4-1.8-.3-.7,1.1-2.1,1.1-2.6-.3-.6.1-1.2,0-1.6-.6,0,0-.3-.1-.4,0-.6.1-1,0-1.4-.4-.1-.1-.3-.2-.5-.2-.6.1-1,0-1.5-.4-.1-.1-.3-.1-.5-.1-.3,0-.6,0-1,0,.4.3.7.6,1.3.5.4,0,.8.3,1.1.5.1,0,.3.2.4.2.2,0,.4,0,.5,0,.5,0,.9.3,1.2.8.9,0,1.3,0,1.7.5.1.2.2.4.4.7.7-.1,1.2.1,1.5.7.4-.7.8-.9,1.3-.8.5,0,.9.5.9,1,0,.5-.2.9-.7,1.1-.5.2-1,0-1.5-.4-.2.3-.5.6-.7.9.9-.3,1.7,0,1.8.9,0,.2,0,.3-.1.5,0,.2-.1.3-.2.5,0,0,0,0,0,0,0,0,0,0,0,0,.4-.2.8-.2,1.1,0,0,0,.2.1.3.2.3.3.4.8.2,1.2-.2.4-.6.6-1.1.5-.4,0-.7-.3-.8-.7-.1-.5,0-.8.4-1.1,0,0,0,0,0,0,0,0,0,0,0,0-.7.3-1.4.4-1.9-.3-.1.3-.2.5-.2.6.4.2.8.4,1.1.7.3.3.3.8.2,1.1.4.1.8.2,1.2.4.2.1.3.5.3.7,0,.6-.5,1.1-1.1,1-.7,0-1-.6-.9-1.5-.8.2-1.3,0-1.7-.7,0,0-.1,0-.2-.1,0,.3,0,.7.1,1.1,1,.1,1.4.6,1.3,1.5.4.2.8.2,1.2.5.2.1.3.5.3.7,0,.6-.5,1.1-1.1,1.1-.7,0-1.1-.5-1.1-1.4-.5.1-1,.1-1.3-.2-.4-.4-.5-.8-.3-1.4-.6,0-1.1-.1-1.5-.6,0,0-.2,0-.3,0-.5.1-.9,0-1.3-.2-.1,0-.3,0-.5,0-.6.3-1.1.3-1.7,0-.1,0-.2,0-.4,0,.4.2.8.4,1.2.6,1-.5,1.5-.4,2.3.5,1.1-.4,2.1.3,2,1.6,1,.1,1.3.4,1.4,1.4.9,0,1.4.2,1.5.9,0,.6-.3,1.1-.9,1.2-.6.1-1.1-.3-1.2-1.1-.5-.1-1,0-1.3-.3-.3-.2-.4-.7-.6-1.1-.4-.2-.8-.4-1.2-.6,0,0-.2,0-.3,0-.5.2-1,.2-1.4,0,0,0-.2,0-.4,0,.5.3.9.6,1.4.8,1.2-.5,2.1.3,2.1,1.4,1,.1,1.2.3,1.4,1.3.9,0,1.4.2,1.5.9,0,.6-.2,1.1-.8,1.2-.6.2-1.1-.2-1.4-1-1.2.2-1.5,0-1.8-1.1-.5-.2-1-.4-1.6-.6-.5.4-1.2.3-1.9,0,.3.2.7.4,1.1.6,1.3-.5,2-.1,2.3,1.1,1,.1,1.4.5,1.5,1.2,0,.6-.3,1.1-.9,1.3-.7.2-1.2-.2-1.5-.9-.5-.1-1-.3-1.5-.4-.4.1-.8.2-1.3.4,0,0,.1.1.2.2.9-.5,1.6-.5,2.1.1.4.5.5,1.3,0,1.8-.6.6-1.1.7-2,.2-.4.2-.7.4-1.1.6.2.3.4.7.7,1.2.2-.7.5-1.2,1.1-1.3.3,0,.8,0,1.1.1.8.4.9,1.2.4,2.2,1.2-.2,1.9,0,2.1,1,0,.1,0,.3,0,.4h0c0,0,.2,0,.2-.2.5-.6,1-.8,1.6-.6.6.2,1,.7,1,1.3,0,.6-.3,1.1-1,1.4,0,0-.1,0-.2.1.1.2.2.5.3.7.2-.7.6-1.1,1.3-1.3-.4-.7-.3-1.4.2-1.8-.3-.4-.6-.8-.8-1.2,0-.2,0-.6.3-.9.4-.6,1.2-.6,1.7-.2.6.5.6,1.2,0,1.9.7.2,1.1.7,1.1,1.4,0,.7-.5,1.1-1.1,1.3.5.7.5,1.4,0,2,.6.6.9,1.3.5,2,.3.4.6.8.7,1.2.1.4,0,.8.2,1.1,0-.5.1-1,.2-1.6-1-.8-1.1-1.4-.4-2.5-1-.9-.8-2.2.5-2.7-.5-.7-.5-1.4.2-2-1-.4-1.4-1.1-1-1.8.3-.6,1.1-.9,1.7-.5.7.4.8,1.2.2,2.1.7.2,1.2.5,1.2,1.3,0,.7-.4,1.1-1,1.4.6.7.6,1.3.1,2,.7.6,1,1.2.6,2.1.8.5,1.3,1.1,1,2.1.3.1.5.3.8.4-.1-.2-.2-.5-.3-.7,0-.4,0-.8.3-1.2-1.3-.7-1.5-1.4-.7-2.5-.6-.3-1-.7-.9-1.4,0-.7.5-1,1.1-1.2-.6-.8-.6-1.6,0-2,.6-.4,1.4-.2,1.7.4.4.7,0,1.4-.8,1.8.2.3.4.7.4,1,0,.4-.2.7-.2,1.1.2.3.6.5.8.9.1.4,0,.9,0,1.3.9.4,1.2.9,1.1,2,1.2.6,1.7,1.3,1.3,2.3ZM78.3,82.9c-.2.7-.8,1.1-1.5,1.1-.7,0-1.3-.5-1.5-1.2,0-.1,0-.3-.1-.3-.9-.8-1-1-.6-2.1-1.1-.2-1.6-.8-1.4-1.6.2-.7.9-1.2,1.6-1,.8.2,1.1,1,.7,2,.8,0,1.3.3,1.6,1.1,0,.1.2.2.3.3.7.4,1.1,1,.9,1.7ZM79.3,80.9c-.8,0-1.3-.5-1.3-1.5-.6.2-1.1.1-1.5-.5-.3-.5-.2-1,.2-1.4-.3-.3-.7-.5-.9-.8-.1-.2,0-.6,0-.9.2-.6.7-.7,1.5-.5-.4-.6-.4-1.1,0-1.5.4-.4.9-.3,1.5.3,0,0,0,0,0,0h0s0,0,0,0c0-.2,0-.4,0-.5,0-.4.3-.7.7-.8.4,0,.8,0,.9.5.2.4,0,.7-.2,1-.3.3-.7.3-1.1,0,0,0-.2-.2-.3-.2,0,0,0,0,0,0,0,0,0,0,0,0,.3.8-.2,1.4-.8,1.4-.2,0-.4,0-.7-.1.5.6.6,1,0,1.8.8.1,1.1.6,1.1,1.4,1-.2,1.6.1,1.8.9.1.7-.4,1.4-1.1,1.4ZM80.1,77.3c-.5,0-.9-.4-.9-.9,0-.5.4-.9.8-.9.5,0,.9.4.9.8,0,.5-.4.9-.9.9ZM92.9,85c-.8,0-1.2-.5-1.3-1.5-1.3.3-2.1-.5-1.8-1.7-.4-.3-.9-.6-1.2-.9-.3-.4-.3-.9,0-1.3-.3-.3-.8-.6-.9-1-.2-.4-.1-.9-.2-1.4-.5-.2-1-.7-1-1.4,0-.6-.1-.8-.5-1.2-.4-.3-.5-.9-.5-1.4,0-.1,0-.4-.1-.4-.7-.5-.9-1.2-.7-2.1-.5-.3-.9-.7-1-1.3,0-.2,0-.4,0-.6,0-.1,0-.3-.1-.4-.7-.5-.9-1.2-.7-2.1-.5-.3-.9-.7-1-1.4,0-.2,0-.4,0-.5,0-.3,0-.4-.2-.5-.6-.4-.8-1-.7-1.7,0-.1,0-.4-.1-.4-.7-.6-.9-1.3-.7-2.2-.8-.5-1.1-1.3-.7-2.3-.9-.6-1.2-1.3-.7-2.3-1.1-.7-1.2-1.2-.7-2.3-.3,0-.6-.2-.8-.5-.4-.5-.4-1.3.4-1.9-.8,0-1.2-.2-1.4-.7-.1-.4,0-.9.4-1.2.4-.3.9-.3,1.3,0,.1,0,.2.2.3.3.1-.2.2-.4.3-.5-.4-.3-.8-.6-1.1-1-.3-.5-.1-1,.2-1.4-.9,0-1.4-.2-1.6-.9-.2-.5,0-1.1.5-1.4.4-.3,1-.3,1.4,0,.5.4.5,1,.2,1.8.2,0,.4,0,.6,0,0-.5.1-1.1.2-1.6-1.1-.1-1.6-.7-1.4-1.7-.3,0-.7.3-1,.3-.3,0-.7-.2-.9-.4-.4-.4-.5-1.1-.1-1.6.3-.5.9-.7,1.5-.6.6.2.9.7,1,1.6.6-.4,1.1-.5,1.7-.1,0-.3.2-.5.2-.8-1.5.2-2.3-.5-2-1.9-.6.9-1.5,1.1-2.2.5-.5-.4-.7-1.1-.4-1.7.3-.6.9-.9,1.6-.8.6.1,1.1.7,1.1,1.3,0,.2,0,.4,0,.6.4-.6.9-.9,1.6-.8-.3-.6-.4-1.1,0-1.7.3-.6.8-.8,1.5-.8-.3-.6-.3-1.1,0-1.7.4-.5.9-.7,1.5-.7-.1-1.4.5-2.2,1.9-2.1,0-1.1.6-1.9,1.6-1.8.8,0,1.5.8,1.4,1.6,0,.9-.7,1.4-1.7,1.4-.2.5-.3,1-.5,1.4-.3.4-.8.6-1.2.6-.2.5-.2,1.1-.5,1.5-.3.4-.8.5-1.3.8.2.8.2.8-.2,1.6.3,0,.5-.1.8-.2,0-1.5.4-1.9,1.7-2.1.1-1.3.7-1.9,1.7-1.8.3-.5.5-1,.9-1.3.2-.2.7-.3,1-.2.8,0,1.3.8,1.2,1.6,0,.8-.7,1.3-1.7,1.3,0,1.1-.6,1.6-1.7,1.7-.1,1.2-.5,1.6-1.7,1.9,0,.1,0,.3,0,.4.5-.2,1-.4,1.5-.7.3-1.1.7-1.5,1.9-1.4.1-.5.3-1,.9-1.2.3-.1.6-.1.9,0,.7.2,1.2.9,1.1,1.6-.1.8-.7,1.3-1.7,1.3-.2.9-.7,1.5-1.7,1.5,0,1-.6,1.6-1.7,1.7,0,.2,0,.3,0,.4.5-.2,1.1-.4,1.7-.7.4-1,.8-1.3,2-1.2.7-1.1,1.2-1.4,2-1.1.7.3,1,1,.8,1.7-.2.7-.9,1.1-1.7.9-.5,1.1-.8,1.4-1.8,1.4-.2.9-.7,1.5-1.6,1.5-.2.5-.4.9-.6,1.5.2-.1.3-.2.4-.3.4-1,.9-1.3,2-1.2.5-1.1.9-1.4,2.1-1.1.5-1,1.1-1.3,1.9-1,.7.3,1,1,.8,1.7-.2.8-.9,1.1-1.8,1-.3.3-.4.7-.8.9-.3.2-.7.3-1.2.4-.2.7-.7,1.2-1.6,1.3-.2.4-.4.8-.6,1.2.1,0,.3,0,.4,0,.6-1.3,1-1.5,2-1.3.3-.3.6-.8,1-.9.4-.2.9,0,1.3-.1.3-.3.7-.6,1.1-.8.2-.1.6,0,.9.1.7.3.9,1.1.6,1.7-.3.7-1,.9-1.8.7-.3.3-.5.7-.8.9-.3.2-.8.2-1.2.3-.2.2-.4.6-.7.8-.3.2-.7.3-1.2.4,0,.1-.1.3-.2.5-.1.2-.3.4-.4.6.3,0,.6,0,.8,0,.5-1.1,1-1.3,2.2-1,.6-1.1,1.2-1.2,2.1-.8.4-.3.8-.7,1.2-.8.3-.1.7,0,1,.2.6.3.8,1.2.5,1.8-.4.7-1.1.8-1.9.4-.7,1-1,1.2-2.1.9-.3.9-.9,1.2-1.9,1.1-.3.9-.9,1.4-1.8,1.3-.1.3-.2.6-.4.9.2,0,.4.2.6-.1.5-.8,1-1,2-.7.7-1.1,1.2-1.3,2.2-.8.9-1.1,1.4-1.2,2.2-.6.4-.3.8-.6,1.2-.8.3,0,.6,0,.9.2.6.3.8,1.2.4,1.8-.4.7-1.1.8-2,.3-.6,1-1.1,1.1-2.1.7-.6,1-1,1.2-2,.9-.3.9-.9,1.3-1.9,1.1-.2.3-.3.6-.5.8.2,0,.5.1.7.2.7-1.1,1.2-1.2,2.2-.8.7-1.1,1.3-1.3,2.2-.7.4-.3.8-.6,1.2-.8.5-.2.9.1,1.3.5.7-.9,1.4-1.1,2-.6.6.4.7,1.3.3,1.8-.5.7-1.2.7-2.1,0-.5,1-1.2,1.2-2.1.7-.3.3-.6.7-.9.8-.4.1-.8,0-1.3,0-.3.7-1,1.2-1.9.9-.2.3-.3.6-.5.8.3,0,.6.2,1,.3.7-1,1.2-1.2,2.3-.6.7-1.1,1.4-1.2,2.4-.4.8-1.3,1.9-1,2.4-.2.6-.8,1-1,1.6-.8.5.1.8.6.9,1.1,0,.6-.3,1-.8,1.2-.6.2-1,0-1.6-.6-.2.5-.5.8-1,1-.5.1-.9-.1-1.2-.4-.4.3-.7.7-1,.8-.4.1-.8,0-1.3-.1-.6.9-1,1-2.1.7-.3.7-.8,1.1-1.5,1.1-.1.5-.3,1-.4,1.5,0,0,.2,0,.3,0,.1-1.6,1-2.1,2.3-1.4.7-1.1,1.4-1.2,2.4-.4.2-.5.6-.9,1.1-.9.6,0,1,.3,1.3.8.2-.5.5-.9,1.1-.9.3,0,.7,0,.9.3.6.4.6,1.3.1,1.8-.6.6-1.3.5-2.1-.3-.6,1.1-1.4,1.2-2.2.5-.4.3-.7.7-1,.8-.4.1-.8,0-1.3,0-.3.6-.8,1-1.5.8-.2.5-.4,1-.6,1.5.1,0,.4,0,.6.1,0-.6.2-1.2.9-1.4.6-.3,1.1,0,1.6.5.6-1.2,1.5-1.3,2.4-.3.4-.8.9-1,1.5-.9.5.1.9.6,1,1.1,0,.4-.3,1-.8,1.2-.6.2-1.1,0-1.6-.6-.6,1.2-1.3,1.3-2.3.5-.4.9-.9,1.1-1.9.9,0,.6-.1,1.2-.7,1.5-.6.3-1.1.1-1.6-.4,0,.1-.2.3-.2.3.4.3.8.6,1.1.8.2-.2.5-.5.8-.6.3-.1.7,0,1.1,0,0-.5.2-1,.8-1.2.7-.2,1.2,0,1.6.6.4-.8.8-1.1,1.4-1,.5,0,1,.5,1,1,0,.5-.2,1-.7,1.2-.6.3-1.1.1-1.6-.5-.3.3-.5.6-.9.8-.3.1-.8,0-1.2,0,0,.6-.2,1.1-.9,1.3-.6.2-1.1,0-1.5-.7-.1.2-.3.4-.4.7.5,0,1,.3,1.2.8,0,.3.1.7,0,1-.2.7-1,1-1.8.6,0,.1-.1.2-.2.4.2.2.4.3.6.5.5-.6,1-.8,1.4-.7.1,0,.3.1.4.2.5.4.6,1,.3,1.6-.4.6-1,.8-1.9.3,0,.1-.1.3-.2.4.3.2.6.5.9.7.5-.8,1.1-1,1.7-.6.5.4.7,1.1.3,1.6-.4.6-1.1.6-1.9,0,0,.1,0,.2-.1.4,1,.2,1.4.8,1.3,1.8,1-.1,1.6.3,1.7,1.1,0,.7-.5,1.3-1.2,1.3ZM95.2,86.1c-.6,0-1-.5-1-1.1,0-.6.5-1.1,1.1-1.1.6,0,1,.5,1.1,1.1,0,.6-.5,1.1-1.1,1.1ZM96.1,83.8c-.6,0-1-.4-1-1,0-.5.4-.9,1-.9s1,.4,1,1c0,.5-.4,1-.9,1ZM96.8,79.4c0-.5.5-1,1-1,.6,0,1,.5,1,1,0,.6-.4,1-1,1-.6,0-1.1-.5-1.1-1ZM98.2,81c.5,0,1,.4.9,1,0,.5-.4.9-1,1-.5,0-1-.4-1-.9,0-.5.4-1,1-1ZM98.3,86.5c-.6,0-1.1-.5-1.1-1.1,0-.6.4-1.1,1.1-1.1.6,0,1.1.5,1.1,1,0,.6-.5,1.1-1.1,1.1ZM99.4,82.6c0-.5.4-1,1-1,.5,0,.9.4.9,1,0,.5-.4,1-1,1-.5,0-.9-.4-.9-1ZM101.3,85.4c-.5,0-.9-.4-.9-.9,0-.5.4-.9,1-.9.5,0,.9.4.9.9,0,.5-.4.9-.9.9ZM102.2,81.6c-.6,0-1-.5-1-1,0-.5.5-1,1-1,.6,0,1,.5,1,1,0,.6-.4,1-1,1ZM103.9,82.9c-.5,0-1-.4-1-1,0-.6.4-1,1-1,.5,0,1,.4,1,1,0,.5-.4,1-1,1ZM106.4,79c-.2.4-.6.7-1.1.6-.5,0-.8-.4-.9-1.1-.8.5-1.5.4-1.8-.2-.3-.5,0-1.2.5-1.4.7-.3,1.2,0,1.6,1,.6-.4,1.1-.4,1.5,0,.4.3.5.8.3,1.2Z"/>
        <polygon class="cls-1" points="77.7 50.3 77.7 50.3 77.7 50.3 77.7 50.3"/>
        <path class="cls-1" d="M77.7,50.3h0s0,0,0,0c0,0,0,0,0,0,0,0,0,0,0,0Z"/>
        <path class="cls-1" d="M77.7,50.3h0s0,0,0,0c0,0,0,0,0,0Z"/>
        <path class="cls-1" d="M58,52h0s0,0,0,0c0,0,0,0,0,0h0s0,0,0,0Z"/>
        <polygon class="cls-1" points="65.2 53.9 65.2 53.9 65.2 53.9 65.2 53.9"/>
        <polygon class="cls-1" points="63.5 57.7 63.5 57.7 63.5 57.7 63.5 57.7"/>
        <path class="cls-1" d="M66.7,55.8c0-.2.1-.3.2-.5,0,.2-.1.3-.2.5h0Z"/>
        <path class="cls-1" d="M65.2,53.9h0s0,0,0,0c0,0,0,0,0,0,0,0,0,0,0,0Z"/>
        <path class="cls-1" d="M65.2,53.9s0,0,0,0c0,0,0,0,0,0,0,0,0,0,0,0Z"/>
        <path class="cls-1" d="M61,74.3c0-.1,0-.3,0-.4,0,.1,0,.3,0,.4h0Z"/>
        <polygon class="cls-1" points="63.5 57.7 63.5 57.7 63.5 57.7 63.5 57.7"/>
        <polygon class="cls-1" points="66.8 55.8 66.7 55.8 66.7 55.8 66.8 55.8"/>
        <polygon class="cls-1" points="63.5 57.7 63.5 57.7 63.5 57.7 63.5 57.7 63.5 57.7"/>
        <path class="cls-1" d="M68.4,43.2c-.1,0-.3,0-.4-.1,0-.3,0-.5-.1-.7,0,.2,0,.4.1.7.1,0,.3,0,.4.1Z"/>
        <path class="cls-1" d="M70.8,82.2c0,.2.1.5.3.7,0,0,0,0,0,0-.1-.2-.2-.5-.3-.7Z"/>
        <path class="cls-1" d="M79.1,27.5h0s0,0,0,0c0,0,0,0,0,0Z"/>
        <path class="cls-1" d="M79.1,27.5s0,0,0,0c.2.3.5.7.5,1,0-.4-.3-.7-.5-1Z"/>
        <path class="cls-1" d="M79.4,27.6c-.1,0-.2,0-.3-.1,0,0,0,0,0,0,.1,0,.2,0,.3,0Z"/>
        <path class="cls-1" d="M79.1,27.5s0,0,0,0h0s0,0,0,0c0,0,0,0,0,0h0Z"/>
        <polygon class="cls-1" points="79.1 27.5 79.1 27.5 79.1 27.5 79.1 27.5"/>
        <path class="cls-1" d="M67.8,55.7c-.3-.1-.6-.1-1.1,0h0c.4-.2.8-.2,1.1,0Z"/>
        <polygon class="cls-1" points="66.7 55.8 66.8 55.8 66.7 55.8 66.7 55.8"/>
        <path class="cls-1" d="M78.8,74.1s0,0,0,0c0,0,0,0,0,0,0,0,0,0,0,0,0,0,0,0,0,0Z"/>
        <polygon class="cls-1" points="78.8 74.1 78.8 74.1 78.8 74.1 78.8 74.1 78.8 74.1 78.8 74.1 78.8 74.1 78.8 74.1"/>
        <path class="cls-1" d="M78.9,74.1s0,0,0,0c0,0,0,0,0,0h0Z"/>
        <path class="cls-1" d="M78.9,74.1s0,0,0,0c0,0,0,0,0,0h0s0,0,0,0Z"/>
        <polygon class="cls-1" points="78.8 74.1 78.9 74.1 78.8 74.1 78.8 74.1"/>
        <polygon class="cls-1" points="78.8 74.1 78.8 74.1 78.8 74.1 78.8 74.1 78.8 74.1"/>
        <path class="cls-1" d="M80.7,39.7c.2,0,.4,0,.5-.1.1-.6.2-1.1.3-1.6-.3,0-.6.1-.8.1v1.6Z"/>
        <path class="cls-1" d="M79.2,50.8c0-.1.1-.2.2-.3-.4-.3-.7-.6-.9-.7-.2.2-.5.3-.7.5.6-.1,1.1,0,1.5.5Z"/>
        <path class="cls-1" d="M77.7,50.3s0,0,0,0c0,0,0,0,0,0,0,0,0,0,0,0Z"/>
        <path class="cls-1" d="M89.9,68.9c-.5.2-.8-.5-1.3-.1.3.2.6.4,1,.6.1-.1.2-.3.4-.5Z"/>
        <path class="cls-1" d="M87.1,53.1c0,0,.1.1.2.2.2-.3.4-.7.7-1-.8-.1-.4.7-.8.9Z"/>
        <path class="cls-1" d="M88.7,74.1c.1.2.2.3.3.5.2-.2.3-.3.4-.6-.3,0-.6,0-.8.1Z"/>
        <path class="cls-1" d="M87.9,66.3c0,0,0,.1,0,.2.2.1.4.2.6.4,0,0,.1-.2.2-.3-.3,0-.6-.1-.8-.2Z"/>
        <path class="cls-1" d="M64.3,53.9c-.4-.2-.8-.5-1.2-.9-.4,0-1,0-1.4-.5,0,0-.2-.1-.3,0-.6.2-1.1,0-1.6-.3,0,0-.2-.1-.3-.1-.5,0-1,0-1.4,0,.4.3.9.7,1.5.5.1,0,.4,0,.5,0,.5.4,1,.6,1.7.5.6,0,1,.5,1.2.9.4,0,.7,0,1,.2.3.1.5.4.7.5.2-.2.4-.5.6-.8-.3,0-.6.1-.9,0Z"/>
        <path class="cls-1" d="M58,52h0c.5,0,1,0,1.4,0-.5,0-1,0-1.4,0Z"/>
        <path class="cls-1" d="M65.2,53.9s0,0,0,0c0,0,0,0,0,0,0,0,0,0,0,0Z"/>
        <path class="cls-1" d="M58,52s0,0,0,0h0s0,0,0,0Z"/>
        <path class="cls-1" d="M58.5,73.2c-1,.4-1.7,0-2.1-.8-.2.3-.4.6-.6.9,1.2.2,1.6.8,1.6,2.2.2,0,.4-.2.6-.2.2,0,.4,0,.6,0-.5-.8-.5-1.1,0-2.1Z"/>
        <path class="cls-1" d="M62.2,55.9c-.6.2-1.1.1-1.6-.3,0,0-.3,0-.4,0-.6.3-1.2.2-1.7-.2,0,0-.2,0-.3,0-.4,0-.7.2-1.2.3.3,0,.4.2.5.1.8-.4,1.4-.1,2,.4,1.1-.4,1.4-.3,2.3.7.9-.2,1.5.1,1.7.8.1-.3.2-.6.3-.9-.7,0-1.3-.2-1.6-.8Z"/>
        <polygon class="cls-1" points="63.5 57.7 63.5 57.7 63.5 57.7 63.5 57.7"/>
        <path class="cls-1" d="M54.5,76c0,.3-.1.5-.2.7,1.2-.2,1.9.3,2.3,1.6.1-.1.3-.2.3-.2-.1-.6-.2-1.2-.4-1.7-.7.4-1.4.2-2.1-.4Z"/>
        <path class="cls-1" d="M53.7,73.4c-.2.3-.4.6-.6.8.3.2.7.4,1,.6.2-.4.4-.7.6-1.1-.3-.1-.6-.2-.9-.4Z"/>
        <path class="cls-1" d="M60.4,75.3c-.3.2-.7.3-1,.4.1.3.3.6.4.8.4-.3.9-.6,1.3-.9,0-.4,0-.8,0-1.3,0,0,0,0,0,0-.2.4-.3.8-.6,1Z"/>
        <path class="cls-1" d="M63.4,78.4c-.2-.3-.3-.6-.5-.8-.1.3-.2.5-.4.8.1.2.3.5.4.8.2-.3.3-.5.4-.7Z"/>
        <path class="cls-1" d="M59.1,78.2c.1.2.3.4.4.6.6-.4.4-.9.1-1.3-.2.2-.4.5-.6.7Z"/>
        <path class="cls-1" d="M63,80.1c-.4.6.4.7.4,1.2.4-.6-.4-.7-.4-1.2Z"/>
        <path class="cls-1" d="M56.5,51.8c.1.1.3.2.5.2.4,0,.7,0,1.1,0-.4-.7-1,0-1.5-.2Z"/>
        <path class="cls-1" d="M58,52s0,0,0,0c0,0,0,0,0,0,0,0,0,0,0,0Z"/>
        <path class="cls-1" d="M55.7,80c.2.3.5.5.7.8,0,0,0,0,0,0-.1-.3-.3-.6-.4-1-.1.1-.2.2-.4.3Z"/>
      </g>
    </g>
  </g>
</svg>