<?xml version="1.0" encoding="UTF-8"?>
<svg xmlns="http://www.w3.org/2000/svg" version="1.1" viewBox="0 0 152 114">
  <defs>
    <style>
      .cls-1 {
        fill: #747474;
      }
    </style>
  </defs>
  <!-- Generator: Adobe Illustrator 28.7.1, SVG Export Plug-In . SVG Version: 1.2.0 Build 142)  -->
  <g>
    <g id="Camada_1">
      <g>
        <path class="cls-1" d="M134.7,18.6c0-2.1-.6-4.1-1.4-6-1.2-2.8-2.9-5.2-5.1-7.3-2.9-2.7-6.3-4.4-10.2-5.1C117.3,0,116.6.1,115.9,0h-.6C115.1.2,114.8.2,114.6,0H38.2C37.9.2,37.7.2,37.4,0h-.8c-.9.2-1.9.1-2.8.4-4.1,1-7.6,3.1-10.5,6.2-3.4,3.7-5.4,8.1-5.4,13.2,0,24.8,0,49.6,0,74.4,0,1.1,0,2.1.3,3.1.9,4.2,2.7,7.8,5.8,10.7,4,3.9,8.7,5.9,14.3,5.9,25.4,0,50.8,0,76.1,0,1.1,0,2.3,0,3.4-.2,8.3-1.8,13.8-6.7,16.4-14.9.4-1.2.4-2.4.6-3.7v-1.2c-.2-.2-.2-.4,0-.7V20.3c-.2-.3-.2-.6,0-.9v-.7s0,0,0-.2ZM89.4,80.3c-.5,0-1,0-1.4,0-2.8,0-5.6,0-8.4,0-.8,0-.9,0-1.2-.8-1.2-3.6-2.5-7.1-3.7-10.7-.2-.5-.3-.6-.9-.6-5.7,0-11.3,0-17,0-.4,0-.6.1-.7.5-1.1,3.6-2.3,7.2-3.5,10.8-.2.7-.4.9-1.2.9-2.8,0-5.7,0-8.5,0-1.1,0-1.2-.2-.8-1.2,2.3-6.5,4.5-13,6.8-19.5,2.9-8.3,5.8-16.6,8.7-24.9.5-1.6.9-3.1.9-4.8,0-.7.1-.8.8-.8,2,0,4,0,6,0,2,0,3.9,0,5.9,0,.6,0,.9.2,1.1.8,5.8,16.5,11.7,32.9,17.5,49.4,0,.2.1.4.1.5,0,.4,0,.6-.5.6ZM106.2,79.3c0,.2,0,.4,0,.6,0,.4-.3.6-.7.6-.9,0-1.8,0-2.7,0-2.1,0-4.3,0-6.4,0-.9,0-1.1-.2-1.1-1.1,0-6.1,0-12.3,0-18.4s0-12.1,0-18.2c0-1.1,0-1.2,1.1-1.2,3,0,5.9,0,8.9,0,.7,0,.9.1.9.9,0,0,0,.1,0,.2,0,12.2,0,24.5,0,36.7ZM101,37.5c-3.8,0-6.3-2.7-6.3-6.2-.1-3.4,2.5-6.1,6.1-6.1,3.6,0,6,2.4,6,6,0,3.6-2.5,6.2-5.8,6.2Z"/>
        <path class="cls-1" d="M134.8,20.3v-.9c0,.3,0,.6,0,.9Z"/>
        <path class="cls-1" d="M134.8,20.3c0-.3,0-.6,0-.9-.2.3-.2.6,0,.9Z"/>
        <path class="cls-1" d="M38.2,0h-.8C37.7,0,37.9,0,38.2,0Z"/>
        <path class="cls-1" d="M38.2,0C37.9,0,37.7,0,37.4,0,37.7.2,37.9.2,38.2,0Z"/>
        <path class="cls-1" d="M115.3,0h-.8C114.8,0,115.1,0,115.3,0Z"/>
        <path class="cls-1" d="M115.3,0C115.1,0,114.8,0,114.6,0,114.8.2,115.1.2,115.3,0Z"/>
        <path class="cls-1" d="M134.8,94v-.7c0,.2,0,.4,0,.7Z"/>
        <path class="cls-1" d="M134.8,94c0-.2,0-.4,0-.7-.2.2-.2.4,0,.7Z"/>
        <path class="cls-1" d="M66.8,43.4c-.5-1.8-1-3.5-1.5-5.3,0,0,0,0-.1,0-.1.5-.2,1-.4,1.6-1.6,6.1-3.6,12.1-5.5,18.1-.1.5-.1.6.4.6,3.6,0,7.3,0,10.9,0,.8,0,.8,0,.6-.8-1.5-4.7-3-9.4-4.5-14.1Z"/>
      </g>
    </g>
  </g>
</svg>