<?xml version="1.0" encoding="UTF-8"?>
<svg xmlns="http://www.w3.org/2000/svg" version="1.1" viewBox="0 0 152 114">
  <defs>
    <style>
      .cls-1 {
        fill: #747474;
      }
    </style>
  </defs>
  <!-- Generator: Adobe Illustrator 28.7.1, SVG Export Plug-In . SVG Version: 1.2.0 Build 142)  -->
  <g>
    <g id="Camada_1">
      <g>
        <path class="cls-1" d="M131.1,11c-3.9-6.6-9.5-10.6-17.4-10.6-25.8,0-51.6,0-77.4,0-1.4,0-2.9,0-4.2.4-6.3,1.7-10.9,5.6-13.8,11.5-1,2-1.4,4.2-1.6,6.4v77.2c.2.9.1,1.9.4,2.9,1.3,5,4.1,9,8.3,11.9,2.9,2,6,3.3,9.5,3.4h1.1c.4-.3.7-.3,1.1,0h75.8c.3-.2.6-.3.9,0h.9c1-.2,2.1,0,3.1-.4,5.7-1.5,10.1-4.9,13.1-10,1.4-2.4,2.2-5,2.4-7.8V18.8c0-2.8-.8-5.4-2.3-7.8ZM57.9,80.9c-2.8,0-5.6,0-8.4,0-1.2,0-1.3,0-1.3-1.3,0-8.2,0-16.3,0-24.5,0-8.1,0-16.1,0-24.2q0-1.4,1.5-1.4c2.8,0,5.5,0,8.3,0,.8,0,1.1.3,1.1,1.1,0,.2,0,.4,0,.6,0,15.9,0,31.9,0,47.8,0,.2,0,.5,0,.7,0,.8-.3,1.2-1.2,1.1ZM102,78.8c-6,2.3-12.2,3.3-18.6,2.4-6.3-.8-11.3-3.6-14.4-9.4-1.1-2.1-1.7-4.4-2-6.8-.5-4.5-.1-8.8,2-12.8,3.2-5.9,8.2-9.4,14.7-10.7,2.4-.5,4.9-.7,7.3-.4.8.1,1-.2,1-1,0-4.6,0-9.2,0-13.7,0-.9.2-1.2,1.1-1.1,2.9,0,5.8,0,8.7,0,.9,0,1.1.3,1.1,1.1,0,7.8,0,15.6,0,23.4,0,6.8,0,13.6,0,20.5,0,2.2,0,4.4.3,6.6.1.9-.1,1.5-1.1,1.9Z"/>
        <path class="cls-1" d="M36,114h1.1c-.4-.1-.7-.1-1.1,0Z"/>
        <path class="cls-1" d="M36,114c.4-.1.7-.1,1.1,0-.4-.3-.7-.3-1.1,0Z"/>
        <path class="cls-1" d="M113,114h.9c-.3-.1-.6-.1-.9,0Z"/>
        <path class="cls-1" d="M113,114c.3-.1.6-.1.9,0-.3-.3-.6-.2-.9,0Z"/>
        <path class="cls-1" d="M91.2,50.2c-1.1-.2-2.1-.2-3.2-.1-4.9.3-9,3.7-9.9,8.3-.3,1.7-.3,3.4,0,5.1.6,4.3,3,7.2,6.9,8.2,2.1.6,4.3.4,6.4.2.6,0,.7-.5.7-1,0-3.3,0-6.6,0-9.9,0-3.3,0-6.6,0-9.8,0-.6-.2-.9-.8-1Z"/>
      </g>
    </g>
  </g>
</svg>