<?xml version="1.0" encoding="UTF-8"?>
<svg id="Camada_1" xmlns="http://www.w3.org/2000/svg" version="1.1" viewBox="0 0 152 114">
  <!-- Generator: Adobe Illustrator 29.0.1, SVG Export Plug-In . SVG Version: 2.1.0 Build 192)  -->
  <defs>
    <style>
      .st0 {
        fill: #747474;
      }
    </style>
  </defs>
  <path class="st0" d="M32.6,52.4c-.3-1-.9-1.9-1.7-2.6-1.3-1.2-3.1-1.8-5.5-1.8-2.5,0-4.5.7-5.9,2.1-1.4,1.4-2.1,3.3-2.1,5.5v.5c0,2.1.8,3.8,2.3,5.2,1.5,1.4,3.5,2.1,6,2.1s1.5,0,2.2-.2c.5,0,1.1-.2,1.6-.3.8-.2,1.6-.5,2.2-.8.4-.3.6-.7.4-1.2l-.6-1.4-.3-.6c-.9.3-1.7.6-2.3.7-.6.1-1.4.2-2.3.2h-.1c-1,0-1.8-.2-2.4-.7-.6-.5-1-1.1-1.1-1.9h0c0,0,8.9,0,8.9,0,.5,0,.8-.5.8-.9v-1.5c0-.8-.1-1.6-.3-2.3ZM27.7,54.2h-4.7c0-.9.3-1.5.7-2,.4-.5,1-.7,1.7-.7s1.3.2,1.7.6c.4.4.5,1,.5,1.7v.4Z"/>
  <path class="st0" d="M67.7,52.4c-.3-1-.9-1.9-1.7-2.6-1.3-1.2-3.1-1.8-5.5-1.8-2.5,0-4.5.7-5.9,2.1-1.4,1.4-2,3.3-2,5.5v.5c0,2.1.7,3.8,2.3,5.2,1.5,1.4,3.5,2.1,6,2.1s1.5,0,2.2-.2c.5,0,1.1-.2,1.6-.3.8-.2,1.6-.5,2.2-.8.4-.3.6-.7.4-1.2l-.6-1.4-.3-.6c-.9.3-1.7.6-2.3.7-.6.1-1.4.2-2.3.2h-.1c-1,0-1.8-.2-2.4-.7-.6-.5-1-1.1-1.1-1.9h0c0,0,8.9,0,8.9,0,.5,0,.8-.5.8-.9v-1.5c0-.8-.1-1.6-.3-2.3ZM62.8,54.2h-4.6c0-.9.3-1.5.7-2,.4-.5,1-.7,1.7-.7s1.3.2,1.7.6c.4.4.5,1,.5,1.7v.4Z"/>
  <path class="st0" d="M34.5,55.5c0-2.2.7-4.1,2.2-5.5,1.5-1.4,3.5-2.1,6.1-2.1s4.7.7,6.1,2.1c1.5,1.4,2.2,3.2,2.2,5.5v.3c0,2.2-.7,4.1-2.2,5.5-1.5,1.4-3.5,2.1-6.1,2.1s-4.7-.7-6.1-2.1c-1.5-1.4-2.2-3.2-2.2-5.5v-.3ZM39.8,55.8c0,1.2.2,2.2.7,2.9.5.7,1.2,1.1,2.3,1.1s1.8-.4,2.2-1.1c.5-.7.7-1.7.7-2.9v-.3c0-1.2-.2-2.2-.7-2.9s-1.2-1.1-2.3-1.1-1.8.4-2.3,1.1c-.5.7-.7,1.7-.7,2.9v.3Z"/>
  <path class="st0" d="M85.2,63.1h-6l-2.3-4.5h0l-2,3.9v.2c-.3.3-.6.4-.9.4h-5.4l1.7-2.4,1.6-2.3,1.9-2.8-5-7.3h6l2.1,4.4h0l1.9-3.7v-.2c.1,0,.1,0,.1,0,.2-.3.5-.4.8-.4h5.4l-1.7,2.4-1.5,2.3-1.8,2.6,5.1,7.5Z"/>
  <path class="st0" d="M10,67.4v-2.6h-3.8c-.5,0-.9.4-.9,1v2.6h3.7c.5,0,1-.4,1-1Z"/>
  <path class="st0" d="M15.4,53.9v8.3c0,.5-.4,1-1,1h-4.4v-9.2c0-.9-.2-1.5-.6-1.8-.4-.4-1-.5-1.8-.5s-.9,0-1.3.2c-.4.2-.7.4-1,.6v10.7H0v-13.9c0-.5.4-1,.9-1h4.1l.2,2.1c.6-.7,1.2-1.3,2.1-1.7.8-.4,1.7-.6,2.7-.6,1.7,0,3,.5,3.9,1.4.9.9,1.4,2.4,1.4,4.5Z"/>
  <path class="st0" d="M150.6,49.4c-.9-.9-2.2-1.4-3.9-1.4s-2.2.2-3,.6c-.8.4-1.7,1.1-2.2,2h0c-.2-.5-.5-.9-.8-1.2-.9-.9-2.2-1.4-3.9-1.4s-1.9.2-2.7.6c-.8.4-1.5,1-2,1.7l-.2-2.1h-4c-.5,0-.9.4-.9,1v13.9h5.3v-10.7c.3-.3.6-.5,1-.6.4-.2.8-.2,1.3-.2.8,0,1.4.2,1.8.5.4.3.6,1,.6,1.8v9.2h4.3c.5,0,.9-.4.9-1v-8.3c0-.6,0-1.1-.1-1.6.2-.2.5-.4.8-.5.4-.2.9-.4,1.4-.4.8,0,1.6.3,2,.7.4.3.6,1,.6,1.8v9.2h4.3c.5,0,1-.4,1-1v-8.3c0-2.1-.5-3.6-1.4-4.5Z"/>
  <path class="st0" d="M100.4,57.8h0c0,.8,0,1.4-.3,2-.3.8-.9,1.5-1.6,2.1-.3.3-.7.5-1.1.7-1.1.6-2.5.9-4,.9-2.6,0-4.6-.7-6-2.1-1.4-1.4-2.1-3.2-2.1-5.4v-.3c0-2.2.7-4,2.1-5.4,1.4-1.4,3.4-2.1,6-2.1s3.9.5,5.2,1.6c1.3,1.1,1.9,2.5,1.9,4.3h0c0,0-4.9,0-4.9,0,0-.7-.2-1.3-.5-1.7-.4-.4-.9-.7-1.6-.7s-1.7.4-2.1,1.1c-.4.7-.6,1.7-.6,2.9v.3c0,1.2.2,2.2.6,2.9.4.7,1.1,1.1,2.2,1.1s1.2-.2,1.6-.5c.2-.2.3-.4.4-.7,0,0,0,0,0,0,0,0,0,0,0,0,.1-.4.5-.6.9-.6h4.1Z"/>
  <path class="st0" d="M107.7,41.7v20.5c0,.5-.4,1-1,1h-4.4v-20.5c0-.5.4-1,.9-1h4.4Z"/>
  <path class="st0" d="M124.7,53.3c0-1.7-.7-3-2-3.9-.9-.7-2.1-1.1-3.4-1.3-.6,0-1.1-.1-1.7-.1s-1.5,0-2.2.2c-1.3.2-2.4.6-3.3,1.2-.6.4-1,.8-1.3,1.2-.8,1.1-.6,2.3-.6,2.3h4.5c.4,0,.6-.3.7-.6,0,0,0,0,0-.1,0-.2.2-.4.3-.5.3-.3.8-.4,1.4-.4s1.2.2,1.6.5c.3.3.5.8.5,1.5v1.1h-1.9c-2.6,0-4.5.4-5.8,1.2-1.3.8-1.9,1.9-1.9,3.4s.5,2.4,1.5,3.3c1,.8,2.3,1.2,4,1.2s1.9-.2,2.6-.5c.6-.3,1.1-.7,1.6-1.2.1,0,.2-.2.3-.3,0,.3,0,0,.2,1.7h4c.5,0,.9-.5.9-.9v-8.9ZM119.3,59.1c-.3.3-.6.5-1.1.7-.5.2-.9.3-1.5.3s-1-.1-1.3-.4c-.3-.3-.5-.6-.5-1s.2-1,.6-1.4c.4-.4,1-.5,1.8-.5h1.9v2.3Z"/>
</svg>