<?xml version="1.0" encoding="UTF-8"?>
<svg id="Camada_1" xmlns="http://www.w3.org/2000/svg" version="1.1" viewBox="0 0 152 114">
  <!-- Generator: Adobe Illustrator 29.0.1, SVG Export Plug-In . SVG Version: 2.1.0 Build 192)  -->
  <defs>
    <style>
      .st0 {
        fill: #747474;
        fill-rule: evenodd;
      }
    </style>
  </defs>
  <path class="st0" d="M143.2,91.1v-12.3c-6.9,0-10.2-3.5-10.2-8.2h10.2v-12.3h8.2v32.7h-8.2ZM122.8,89.1v-8.2c4.5,0,8.2,3.8,8.2,8.2v2h-8.2v-2ZM122.8,78.9v-20.5h8.2v12.3c0,4.6-3.7,8.2-8.2,8.2M108.5,83.6c2.8,0,5-1.5,6.6-3.5l6.3,4.9c-3,3.8-7.5,6.7-12.9,6.7-9.3,0-16.9-7.4-16.9-16.9s7.6-16.9,16.9-16.9,9.9,3.1,12.9,6.9l-6.3,4.9c-1.5-2-3.7-3.5-6.6-3.5-4.9,0-8.8,3.9-8.8,8.6s3.9,8.8,8.8,8.8M69.6,72.8v18.3h-8.3v-14.3c0-2.5,1.4-4.9,3.3-6.4,1.8-1.4,3-1.7,11.8-1.7l5.5,8.1v-16.1c3,1.7,5.3,4.3,6.7,7.4.9,2.1,1.4,5.5,1.4,11.6v11.4h-8.2l-12.3-18.3ZM64.3,64.8c-1.8-1.5-3.1-3.8-3.1-6.4h8.3l5.5,8.3c-7,0-8.7-.2-10.7-1.9M45,91.6c-8.7,0-14.3-6.4-14.3-13.7v-4.2c0-4.5.7-7.4,1.9-9.3,1.5-2.3,3.7-4.2,6.3-5.2v18.2c0,3.7,3,6,6.1,6s6.1-2.3,6.1-6v-8.7c4.5,0,8.2,3.7,8.2,8.1v1.2c0,7.2-5.6,13.7-14.3,13.7M51.1,66.6v-8.2s8.2,0,8.2,0c0,4.6-3.7,8.3-8.2,8.2M18.4,80.9c-4.6,0-8.2-3.4-8.2-8.1h7.7c1.7,0,3.1-1.1,3.1-3.2s-1.4-3.1-3.1-3.1h-9.8c0,7.6,0,9.3-1.8,11.5-1.5,1.8-3.8,2.8-6.3,2.8v-22.5h17.9c6.1,0,11.3,4.1,11.3,11.3s-4.6,11.3-10.7,11.3M136.9,29.5c-1.8,0-2.7.8-2.7,1.5,0,1.2,1.1,2.1,7.9,4,6.7,2.1,9.5,5.4,9.5,9.3,0,5.7-3.6,10.7-13.6,10.7s-11-3.2-14.8-6.9l6.5-5c2.1,2,6.2,3.8,9.4,3.8s3.3-.7,3.3-1.8-.8-2.1-7.5-3.8c-6.4-1.4-9.8-5.4-9.8-10s4.1-9.9,13.2-9.9,10.9,3.7,13.8,6.8c0,.1,0,.1,0,.1l-6.7,5.2c-1.8-1.9-5.4-4.1-8.4-4.1M104,54.4c-5.2-1.6-9.3-5.8-10.8-11.1-.4-1.4-.6-3.5-.6-8.6v-12.4h3.3c8.2,0,10,.2,12.1,2,1.8,1.5,3,3.8,3,6.2h-10.2v4.1h18.4v8.2h-18.4v4.1h20.5v8.2h-8.3c-4.8,0-7.3-.1-8.9-.6M121.2,22.3v8.2h-8.3c0-4.4,3.8-8.2,8.3-8.2M69.1,55.1h-7.3v-7.3c0-8.2.1-10,1.9-12.1,1.5-1.8,3.8-3.1,6.3-3.1v14.3h18.3c-1.8,3.2-4.5,5.6-7.7,7-2,.8-6.2,1.2-11.4,1.2M61.8,22.3h8.2v8.2c-4.5,0-8.2-3.5-8.2-8.2M43.4,35.7c-2.6,6.8-5.6,14.4-6.9,17.7-2-1.4-3.6-3.4-4.5-5.7-.6-1.5-.5-3.4.5-5.9,2.5-6.2,7.8-19.5,7.8-19.5h6.1l13.2,32.7h-8.7s-4-10.3-7.5-19.4M14.1,29.5c-1.8,0-2.7.8-2.7,1.5,0,1.2,1.1,2.1,7.8,4,6.8,2.1,9.6,5.4,9.6,9.3,0,5.7-3.6,10.7-13.7,10.7s-10.9-3.2-14.7-6.9l6.5-5c2.1,2,6.2,3.8,9.4,3.8s3.2-.7,3.2-1.8-.7-2.1-7.4-3.8c-6.4-1.4-9.8-5.4-9.8-10s4.1-9.9,13.2-9.9,10.9,3.7,13.8,6.8c0,.1,0,.1,0,.1l-6.7,5.2c-1.8-1.9-5.4-4.1-8.4-4.1M8.1,91.1H0v-8.2c4.5,0,8.1,3.8,8.1,8.2"/>
</svg>