<?xml version="1.0" encoding="UTF-8"?>
<svg xmlns="http://www.w3.org/2000/svg" version="1.1" viewBox="0 0 152 114">
  <defs>
    <style>
      .cls-1 {
        fill: #c5c2c3;
      }

      .cls-2 {
        fill: #d1cfcf;
      }

      .cls-3 {
        fill: #757575;
      }

      .cls-4 {
        fill: #858585;
      }

      .cls-5 {
        fill: #949494;
      }
    </style>
  </defs>
  <!-- Generator: Adobe Illustrator 28.7.1, SVG Export Plug-In . SVG Version: 1.2.0 Build 142)  -->
  <g>
    <g id="Camada_1">
      <g id="slack_xA0_Imagem">
        <g>
          <path class="cls-1" d="M94,0c0,.3,0,.6,0,.9-2,1.7-4.1,1.7-6.1,0,0-.3,0-.6,0-.9h6Z"/>
          <path class="cls-2" d="M64,0c0,.3,0,.6,0,.9-1.8,1.6-3.5,1.6-5.2-.1,0-.3,0-.5.1-.8h5Z"/>
          <path class="cls-3" d="M87.9,1c2,0,4.1,0,6.1,0,6.1,2.1,8.9,6.5,8.9,12.9,0,9,0,18,0,27,0,7.8-4.9,13.1-11.9,13.1-7,0-11.8-5.3-11.8-13.2,0-9,0-18,0-27,0-6.4,2.7-10.8,8.9-12.9Z"/>
          <path class="cls-5" d="M106,60c4.8,0,9.7-.1,14.5,0,6.7.2,11.9,5.1,12.2,11.5.3,6-5,12-11.5,12.2-10.1.3-20.3.3-30.4,0-6.8-.2-11.7-5.7-11.6-12,.1-6.5,5.3-11.5,12.4-11.7,4.8-.1,9.7,0,14.5,0Z"/>
          <path class="cls-5" d="M46.1,54c-4.8,0-9.6.1-14.5,0-6.8-.2-11.4-4.7-11.6-11.2-.2-6.8,4.1-12.2,10.8-12.4,10.3-.4,20.6-.3,30.9,0,6.6.2,11.5,5.9,11.3,12.2-.2,6.6-5,11.3-12,11.4-5,.1-10,0-15,0Z"/>
          <path class="cls-4" d="M73.1,86.6c0,4.8,0,9.6,0,14.5-.2,6.9-4.5,11.6-10.8,11.9-7.3.2-12.5-3.7-12.8-10.9-.5-10.3-.4-20.6,0-30.9.3-6.8,5.9-11.4,12.4-11.1,6.5.2,11.1,5.2,11.3,12.1.1,4.8,0,9.6,0,14.5Z"/>
          <path class="cls-4" d="M35.9,60c1.3,0,2.7.1,4,0,2.8-.3,4,.8,3.8,3.6-.3,3.5,0,7-.5,10.4-1,6.2-6.6,10.3-12.5,9.7-6.2-.6-10.7-5.8-10.6-12.3.1-6.2,4.6-10.9,10.9-11.4,1.7-.1,3.3,0,5,0,0,0,0,0,0,0Z"/>
          <path class="cls-3" d="M116.3,54q-7.5,0-7.5-7.7c0-1.5,0-3,0-4.5.4-6.7,5.5-11.7,11.9-11.6,6.2.1,11.7,5.7,11.8,11.9,0,6.2-5.2,11.5-11.8,11.8-1.5,0-3,0-4.5,0Z"/>
          <path class="cls-5" d="M79.1,98.6c0-8.9,0-8.9,7.6-8.9,4.3,0,8.8-.5,12.2,2.9,3.6,3.5,5.1,7.6,3.3,12.6-1.8,5-5.5,7.6-10.9,7.7-5.5,0-9.4-2.5-11.2-7.2-1.1-2.7-.9-5.5-.9-7.1Z"/>
          <path class="cls-5" d="M58.9.8c1.7,0,3.5,0,5.2.1,6.6,2.7,8.9,5.9,9,12.7.2,10.7.2,10.6-10.7,10.5-3.3,0-6.2-.6-8.8-2.8-7.4-6.6-4.8-16.6,5.3-20.6Z"/>
        </g>
      </g>
    </g>
  </g>
</svg>