<?xml version="1.0" encoding="UTF-8"?>
<svg id="Camada_1" xmlns="http://www.w3.org/2000/svg" version="1.1" viewBox="0 0 152 114">
  <!-- Generator: Adobe Illustrator 29.0.1, SVG Export Plug-In . SVG Version: 2.1.0 Build 192)  -->
  <defs>
    <style>
      .st0 {
        fill: #747474;
      }
    </style>
  </defs>
  <g>
    <path class="st0" d="M47.9,99c0-1.3.4-2.3,1.1-2.9.7-.6,1.8-.9,3.2-.9s1.2,0,1.6.2c.5.1.9.3,1.2.5l-.3.5c-.2-.2-.6-.3-1-.5-.4-.2-.9-.2-1.5-.2-1.1,0-2,.2-2.5.7-.6.5-.9,1.3-.9,2.5s.3,2,.9,2.5c.6.5,1.4.8,2.5.8s.5,0,.8,0c.3,0,.5,0,.7-.2.2,0,.4-.1.6-.2.2,0,.3-.2.4-.2l.3.5c-.3.2-.7.3-1.2.5-.5.1-1,.2-1.6.2-1.4,0-2.5-.3-3.2-.9-.7-.6-1.1-1.6-1.1-2.9Z"/>
    <path class="st0" d="M61.3,102.9c-1.4,0-2.3-.3-3-1-.6-.7-1-1.6-1-2.9,0-1.2.3-2.2,1-2.8.6-.6,1.6-.9,3-.9s2.3.3,3,.9c.6.6.9,1.6.9,2.8s-.3,2.2-.9,2.9c-.6.7-1.6,1-3,1ZM61.3,95.8c-1.1,0-1.9.3-2.4.8-.5.5-.7,1.3-.7,2.4s.2,1.9.7,2.4c.5.6,1.3.9,2.4.9,1.1,0,1.9-.3,2.4-.9.5-.6.7-1.4.7-2.4s-.2-1.9-.7-2.4c-.5-.5-1.3-.8-2.4-.8Z"/>
    <path class="st0" d="M73,101c.2,0,.3,0,.3,0,0,0,.1-.1.2-.2l2.1-4.7c0-.2.2-.4.4-.5.2-.1.4-.2.8-.2s.6,0,.7.2c.2.1.3.3.2.6v6.8s-.9,0-.9,0v-6.7c0,0,0-.1,0-.1,0,0-.1,0-.2,0s-.1,0-.2,0c0,0,0,0-.1.1l-2.2,4.7c-.1.2-.3.4-.5.6-.2.1-.5.2-.8.2s-.6,0-.8-.2c-.2-.1-.3-.3-.5-.6l-2.2-4.7c0,0,0-.1-.1-.1,0,0-.1,0-.2,0,0,0-.1,0-.2,0,0,0,0,0,0,.1v6.8h-.8v-6.8c0-.2,0-.4.2-.6.2-.1.4-.2.7-.2s.6,0,.8.2c.2.1.3.3.4.5l2.1,4.7c0,.1.1.2.2.2,0,0,.2,0,.3,0Z"/>
    <path class="st0" d="M84.4,102.9c-1.1,0-1.9-.2-2.5-.6-.6-.4-.9-1-.9-1.8v-5.1h.9v5c0,.7.2,1.2.7,1.5.5.3,1.1.5,1.9.5s1.4-.2,1.9-.5c.5-.3.7-.8.7-1.5v-5h.8v5.1c0,.8-.3,1.4-.9,1.8-.6.4-1.5.6-2.6.6Z"/>
    <path class="st0" d="M92.5,96c0-.1-.2-.2-.3-.2s-.3,0-.3.2v6.7h-.8v-6.8c0-.2,0-.4.3-.6.2-.1.4-.2.7-.2s.6,0,.8.2c.2.1.3.3.5.5l3.9,6.2c0,.1.2.2.3.2,0,0,.1,0,.2,0,0,0,0,0,0-.1v-6.7h.9v6.8c0,.2,0,.4-.3.6-.2.1-.4.2-.8.2-.3,0-.6,0-.8-.2-.2-.1-.3-.3-.5-.5l-3.9-6.2Z"/>
    <path class="st0" d="M102.9,102.8h-.8v-7.5h.8v7.5Z"/>
    <path class="st0" d="M106.2,99c0-1.3.4-2.3,1.1-2.9.7-.6,1.8-.9,3.2-.9s1.1,0,1.6.2c.5.1.9.3,1.2.5l-.3.5c-.2-.2-.6-.3-1-.5-.4-.1-.9-.2-1.5-.2-1.1,0-2,.3-2.5.7-.6.5-.9,1.3-.9,2.4s.3,2,.9,2.5,1.4.8,2.5.8.5,0,.8,0c.2,0,.5,0,.7-.2.2,0,.4-.1.6-.2.2,0,.3-.2.4-.2l.3.5c-.3.2-.7.3-1.2.5-.5.1-1,.2-1.6.2-1.4,0-2.5-.3-3.2-.9-.7-.6-1.1-1.6-1.1-2.9Z"/>
    <path class="st0" d="M121.6,100.6h-4.6l-.6,2.2h-.8l1.7-6.3c.1-.4.3-.7.7-.9.3-.2.8-.3,1.3-.3.5,0,1,.1,1.3.3.3.2.6.5.7.9l1.7,6.3h-.8l-.6-2.2ZM121.4,100l-.9-3.3c0-.3-.2-.5-.4-.6-.2-.2-.5-.2-.8-.2s-.7,0-.9.2c-.2.2-.3.4-.4.6l-.9,3.3h4.3Z"/>
    <path class="st0" d="M129.5,102.9l-.2.3c0,0,0,.1.1.1h.1c.4,0,.7,0,.9.2.2.1.3.3.3.6s-.1.4-.3.5c-.2.1-.6.2-1,.2s-.5,0-.7-.1c-.3,0-.5-.2-.7-.2l.2-.4c.2.1.4.2.6.2.2,0,.4,0,.6,0,.5,0,.7-.1.7-.3s-.2-.4-.6-.4h-.2c-.2,0-.3,0-.5-.1-.1,0-.2-.2-.2-.3s0-.1,0-.2l.2-.3c-1.2,0-2.1-.4-2.7-1-.6-.6-.9-1.5-.9-2.8s.4-2.3,1.1-2.9c.7-.6,1.8-.9,3.2-.9.6,0,1.1,0,1.6.2.5.1.9.3,1.2.5l-.3.5c-.2-.2-.6-.3-1-.5-.4-.2-.9-.2-1.5-.2-1.1,0-2,.3-2.5.7-.6.5-.9,1.3-.9,2.5s.3,2,.9,2.5c.6.5,1.4.8,2.5.8.3,0,.5,0,.8,0,.3,0,.5,0,.7-.2.2,0,.4-.1.6-.2.2,0,.3-.2.4-.2l.3.5c-.3.2-.7.3-1.2.5-.5.1-1,.2-1.6.2h-.2Z"/>
    <path class="st0" d="M140.8,100.6h-4.6l-.6,2.2h-.8s1.7-6.3,1.7-6.3c.1-.4.3-.7.7-.9.3-.2.8-.3,1.3-.3s1,.1,1.3.3c.3.2.6.5.7.9l1.7,6.3h-.8s-.6-2.2-.6-2.2ZM136.2,94.1c.1,0,.3-.1.4-.2.1,0,.3,0,.5-.1.2,0,.4,0,.6,0s.4,0,.6,0c.2,0,.3.1.4.2.1,0,.2.1.4.2.1,0,.3,0,.5,0s.3,0,.4,0c.1,0,.3,0,.4-.1.1,0,.2-.1.4-.2l.3.4c-.1,0-.3.1-.4.2-.1,0-.3,0-.5.1-.2,0-.4,0-.6,0s-.4,0-.5,0c-.1,0-.3-.1-.4-.2-.1,0-.2-.1-.4-.2-.1,0-.3,0-.5,0s-.3,0-.4,0c-.1,0-.2,0-.4.1-.1,0-.2.1-.4.2l-.3-.4ZM140.7,100l-.9-3.3c0-.3-.2-.5-.4-.6-.2-.2-.5-.2-.8-.2s-.7,0-.9.2c-.2.2-.3.4-.4.6l-.9,3.3h4.3Z"/>
    <path class="st0" d="M148.2,102.9c-1.4,0-2.3-.3-3-1-.6-.7-1-1.6-1-2.9s.3-2.2,1-2.8c.6-.6,1.6-.9,3-.9s2.3.3,3,1c.6.6.9,1.6.9,2.8s-.3,2.2-.9,2.9c-.6.7-1.6,1-3,1ZM148.2,95.8c-1.1,0-1.9.3-2.4.8-.5.5-.7,1.3-.7,2.4,0,1.1.2,1.9.7,2.4.5.6,1.3.9,2.4.9,1.1,0,1.9-.3,2.4-.9.5-.6.7-1.4.7-2.4s-.2-1.9-.7-2.4c-.5-.5-1.3-.8-2.4-.8Z"/>
  </g>
  <path class="st0" d="M108.3,25.6c.6,0,1.2.1,1.7.4.6.3,1,.7,1.3,1.3.3.6.5,1.2.5,1.8,0,.6-.1,1.2-.5,1.8-.3.6-.7,1-1.3,1.3-.6.3-1.2.5-1.8.5-.6,0-1.2-.1-1.8-.5-.6-.3-1-.7-1.3-1.3-.3-.6-.5-1.2-.5-1.8,0-.6.2-1.2.5-1.8.3-.6.8-1,1.3-1.3.6-.3,1.2-.5,1.8-.5Z"/>
  <g>
    <path class="st0" d="M67.2,12.4c0-1.8-.9-2.7-2.7-2.7-1.8,0-2.7.9-2.7,2.8v15.3h-6.3c-1.8,0-2.8-.9-2.8-2.8V8.3c0-1.8-.9-2.7-2.7-2.7,0,0,0,0,0,0h-3.4c-1.8,0-2.8.9-2.7,2.7,0,1.8.9,2.6,2.7,2.6h.7v14c0,5.5,2.7,8.3,8.2,8.2h9c1.8,0,2.7-.9,2.7-2.7V12.4Z"/>
    <path class="st0" d="M101.4,30.2v-12.4c0-5.5-2.8-8.2-8.2-8.1h-19.7c-1.8,0-2.6,1-2.6,2.7v17.9c0,1.8.9,2.7,2.7,2.7,1.8,0,2.7-.9,2.7-2.8v-15.2h4.4c1.8,0,2.7.9,2.8,2.7v12.5c0,1.8,1,2.7,2.8,2.7,1.8,0,2.7-.9,2.7-2.7v-15.3h4.3c1.8,0,2.8.9,2.9,2.7v12.5c0,1.8.9,2.7,2.7,2.7,1.8,0,2.7-.9,2.7-2.7Z"/>
  </g>
  <g>
    <path class="st0" d="M138.8,56.1c-.3-.6-.8-1-1.3-1.3-.6-.3-1.2-.5-1.7-.4-.6,0-1.2.2-1.8.5-.6.3-1,.8-1.3,1.3-.3.6-.5,1.2-.5,1.8,0,.6.2,1.2.5,1.8.3.6.8,1,1.3,1.3.6.3,1.2.5,1.8.5.6,0,1.2-.2,1.7-.5.6-.3,1-.8,1.3-1.3.3-.6.5-1.2.5-1.8,0-.6-.2-1.2-.5-1.8Z"/>
    <path class="st0" d="M64.7,38.6h-8.9c-5.4,0-8.1,2.8-8,8.3v12.4c0,1.8.9,2.7,2.7,2.7,1.8,0,2.7-.9,2.7-2.7v-4.5s8.9,0,8.9,0v4.5c0,1.8,1,2.7,2.8,2.7,1.8,0,2.5-.9,2.5-2.8v-18c0-1.8-.9-2.7-2.7-2.6ZM62,49.4h-8.9s0-2.6,0-2.6c0-1.8.9-2.8,2.7-2.8h6.2s0,5.4,0,5.4Z"/>
    <path class="st0" d="M102.5,38.4h-7.2c-5.4,0-8,2.8-8,8.3v9.8h-8c-1.8,0-2.8-.9-2.8-2.7v-9.9s4.4,0,4.4,0c1.8,0,2.7-1,2.7-2.7,0-1.8-1-2.7-2.8-2.7h-4.3s0-1,0-1c0-1.8-.9-2.7-2.7-2.7-1.8,0-2.8.9-2.8,2.7v16.2c0,5.5,2.8,8.3,8.2,8.2h10.6c.3,0,.7,0,.9-.1,1.4-.2,2.1-1.1,2.1-2.7v-12.5c0-1.8.8-2.8,2.7-2.8h4.4v1.8c0,1.8.9,2.7,2.8,2.7,1.8,0,2.6-.9,2.6-2.8v-4.5c0-1.8-.9-2.6-2.7-2.6Z"/>
    <path class="st0" d="M120.5,38.2h-3.6c-5.4,0-8.1,2.8-8,8.2v7.2c0,5.4,2.7,8.1,8.1,8h3.7c5.4,0,8.1-2.8,8-8.3v-7c0-5.4-2.8-8.1-8.2-8ZM120.6,56.2h-3.6c-1.8,0-2.7-.9-2.7-2.8v-7.1c0-1.8.9-2.7,2.6-2.7h3.6c1.8,0,2.7.8,2.8,2.6v7.2c0,1.8-.8,2.8-2.7,2.8Z"/>
    <path class="st0" d="M20.8,56.7v-15.3c0-1.8-.9-2.7-2.7-2.7h-2.6v18.1h-6.3c-1.8,0-2.8-.9-2.8-2.8v-14.9c-3.5.9-5.4,3.5-5.4,7.8v7c0,5.5,2.7,8.3,8.1,8.2h6.2s0,4.4,0,4.4c0,1.8.9,2.7,2.7,2.7,1.8,0,2.7-.9,2.7-2.7v-4.5c1.8,0,2.7-.9,2.7-2.7,0-1.8-.9-2.6-2.7-2.6Z"/>
    <path class="st0" d="M41.4,38.6c-1.8,0-2.7.9-2.7,2.8v15.3s-6.3,0-6.3,0c-1.8,0-2.8-.9-2.8-2.8v-12.6c0-1.8-.9-2.7-2.7-2.7-1.8,0-2.7.9-2.7,2.7v12.5c0,5.5,2.7,8.3,8.1,8.2h9c1.8,0,2.7-.9,2.7-2.7v-18c0-1.8-.9-2.7-2.7-2.7Z"/>
  </g>
  <g>
    <path class="st0" d="M65,67c-1.8,0-2.7.9-2.6,2.7v15.3h-6.3c-1.8,0-2.8-.9-2.8-2.7v-12.5c0-1.8-1-2.7-2.8-2.7-1.8,0-2.6.9-2.6,2.7v12.4c0,5.5,2.8,8.3,8.1,8.2h9c1.8,0,2.7-.9,2.7-2.7v-18c0-1.8-1-2.7-2.8-2.7Z"/>
    <path class="st0" d="M126.1,66.7h-7.2c-5.4,0-8.1,2.8-8,8.4v9.8h-8c-1.8,0-2.8-.9-2.8-2.7v-9.9h4.4c1.8,0,2.7-1,2.7-2.7,0-1.8-1-2.7-2.8-2.7h-4.4v-2.7c0-1.8-.9-2.7-2.7-2.7-1.8,0-2.7.9-2.7,2.7v17.8c0,5.5,2.9,8.3,8.3,8.2h10.4c.3,0,.6,0,.9-.1,1.4-.2,2.1-1.1,2.1-2.7v-12.5c0-1.8.8-2.8,2.7-2.8h4.4s0,1.7,0,1.7c0,1.8.9,2.7,2.8,2.7,1.8,0,2.6-.9,2.6-2.7v-4.5c0-1.8-.9-2.7-2.7-2.6Z"/>
    <path class="st0" d="M152.4,74.5c0-5.4-2.8-8.1-8.2-8.1h-3.6c-5.4,0-8.1,2.8-8.1,8.2v7.2c0,5.4,2.8,8.1,8.1,8h3.7c5.4,0,8.1-2.8,8-8.3v-7h0ZM144.3,84.5h-3.6c-1.8,0-2.7-.9-2.7-2.7v-7.1c0-1.8.8-2.7,2.6-2.7h3.6c1.8,0,2.8.8,2.8,2.6v7.2c0,1.8-.9,2.8-2.7,2.8Z"/>
    <path class="st0" d="M44.3,85.2v-15.3c0-1.8-.9-2.7-2.7-2.7h-2.6v18h-6.3c-1.8,0-2.8-.9-2.8-2.8v-14.9c-3.5.9-5.4,3.5-5.4,7.8v7c0,5.5,2.7,8.2,8.1,8.2h6.2v11.4c0,1.8.9,2.7,2.7,2.7,1.8,0,2.7-.9,2.7-2.7v-11.4c1.8,0,2.7-.9,2.7-2.7,0-1.8-.9-2.6-2.7-2.6Z"/>
    <path class="st0" d="M88.3,66.9h-8.9c-5.4,0-8,2.8-8,8.3v12.4c0,1.8.9,2.7,2.7,2.7,1.8,0,2.7-.9,2.7-2.8v-4.5h8.9v4.5c0,1.8,1,2.7,2.8,2.7,1.8,0,2.5-.9,2.5-2.7v-18c0-1.8-.9-2.7-2.7-2.6ZM85.7,77.7h-8.9s0-2.6,0-2.6c0-1.9.9-2.8,2.7-2.8h6.2s0,5.4,0,5.4Z"/>
  </g>
</svg>