<?xml version="1.0" encoding="UTF-8"?>
<svg id="Camada_1" xmlns="http://www.w3.org/2000/svg" version="1.1" viewBox="0 0 152 114">
  <!-- Generator: Adobe Illustrator 29.0.1, SVG Export Plug-In . SVG Version: 2.1.0 Build 192)  -->
  <defs>
    <style>
      .st0 {
        fill: #747474;
      }
    </style>
  </defs>
  <path class="st0" d="M95.1,21.1c-1.6,4.3-3.8,8.8-6.2,12.7h-30v12.4h30.9l-6.6,12.4h-24.3v12.7h38.3l-.2,1.4-6,11h-47.4v-25l15.3-37.7h36.2Z"/>
  <path class="st0" d="M142,21.1l-24.1,50.3h18.8c-.3,1.6-1.4,2.9-1.7,4.5-.5,3.1.2,5.5,2,7.9h-43.7s25.6-49.9,25.6-49.9h-27.7l5.7-12.7h45.1Z"/>
  <polygon class="st0" points="15.3 21.1 28.8 54.4 41.5 21.1 57.2 21.1 28.2 92.3 0 21.1 15.3 21.1"/>
  <path class="st0" d="M150.1,83.3c-.3.4-3.3,1.9-3.8,2.1-5.9,1.5-10.8-3.4-10-9.2.8-6,9.3-8.5,13.5-4.2s3,8.5.2,11.4Z"/>
</svg>