<?xml version="1.0" encoding="UTF-8"?>
<svg id="Camada_1" xmlns="http://www.w3.org/2000/svg" version="1.1" viewBox="0 0 152 114">
  <!-- Generator: Adobe Illustrator 29.0.1, SVG Export Plug-In . SVG Version: 2.1.0 Build 192)  -->
  <defs>
    <style>
      .st0 {
        fill: #747474;
      }
    </style>
  </defs>
  <path class="st0" d="M80.8,66.1c-.5,0-1,0-1.5.3-.1,0-.3.1-.4.2-.1,0-.3.1-.4.2-.3.2-.6.4-.9.7-.4.4-.7.9-1,1.4h0c0,.1,0,.2-.1.3-.1.4-.2.8-.2,1.2v.3h0v.3c0,.4.1.8.3,1.2,0,.1.1.3.2.4,0,.1.1.3.2.4.2.3.4.6.7.9.4.4.9.7,1.4,1h0c0,0,.2,0,.3.1.4.1.7.2,1.1.2h0s.3,0,.3,0h0s0,0,0,0h.3c.4,0,.8-.1,1.2-.3.1,0,.3-.1.4-.2.1,0,.3-.1.4-.2.3-.2.6-.4.9-.7.4-.4.7-.9,1-1.4,0-.1,0-.2.1-.3.1-.4.2-.9.2-1.4h0v-4.5h-4.2s-.3,0-.3,0Z"/>
  <path class="st0" d="M59.5,66.1c-1.9,0-3.6,1.2-4.2,2.9h8.4c-.6-1.7-2.3-2.9-4.2-2.9Z"/>
  <path class="st0" d="M75.5,54.3c.3.3.6.5.9.7.1,0,.3.1.4.2.1,0,.3.1.4.2.4.1.8.2,1.2.3h0s.3,0,.3,0h.3c.4,0,.8-.1,1.1-.2.1,0,.2,0,.3-.1.5-.2,1-.6,1.4-1,.3-.3.5-.6.7-.9,0-.1.1-.2.2-.4,0-.1.1-.3.2-.4.1-.4.2-.8.3-1.2h0v-.3h0v-.3h0c0-.4-.1-.8-.2-1.2,0-.1,0-.2-.1-.3-.2-.5-.6-1-1-1.4-.3-.3-.6-.5-.9-.7-.1,0-.3-.1-.4-.2-.1,0-.3-.1-.4-.2-.5-.2-1-.3-1.5-.3h-4.5c0,1.5,0,3,0,4.5h0c0,.5.1,1,.2,1.4,0,.1,0,.2.1.3.2.5.6,1,1,1.4h0Z"/>
  <path class="st0" d="M94.6,66.1h-.3c-.5,0-1,0-1.5.3-.1,0-.3.1-.4.2-.1,0-.3.1-.4.2-.3.2-.6.4-.9.7-.4.4-.7.9-1,1.4h0c0,.1,0,.2-.1.3-.1.4-.2.8-.2,1.2h0v.3s0,0,0,0h0v.3h0c0,.4.1.8.2,1.2,0,.1.1.3.2.4,0,.1.1.3.2.4.2.3.4.6.7.9.4.4.9.7,1.4,1,.1,0,.2,0,.3.1.4.1.8.2,1.2.2h0s.3,0,.3,0h0s0,0,0,0h.3c.4,0,.8-.1,1.2-.3.1,0,.3-.1.4-.2.1,0,.3-.1.4-.2.3-.2.6-.4.9-.7.4-.4.7-.9,1-1.4,0-.1,0-.2.1-.3.1-.4.2-.9.2-1.4h0c0-1.5,0-3,0-4.5h-4.2Z"/>
  <path class="st0" d="M107.9,66.1c-1.9,0-3.6,1.2-4.2,2.9h8.4c-.6-1.7-2.3-2.9-4.2-2.9Z"/>
  <path class="st0" d="M76.1,0H19.2v57c0,31.4,25.6,57,57,57s57-25.6,57-57S107.4,0,76.1,0ZM101.6,51.1c0-.9.2-1.7.5-2.4,0-.2.1-.3.2-.5,0-.2.2-.3.3-.5.2-.4.5-.7.8-1h0c.2-.2.3-.3.5-.5.2-.1.3-.3.5-.4,1-.6,2.1-1,3.4-1h0c.9,0,1.7.2,2.4.5.2,0,.3.2.5.2.2,0,.3.2.5.3.4.2.7.5,1,.8h0c.2.2.3.3.4.5.1.2.3.4.4.5.6,1,1,2.1,1,3.4v.3h0v6h-6.3c-.9,0-1.7-.2-2.4-.5-.2,0-.3-.1-.5-.2-.1,0-.3-.2-.5-.3-.4-.2-.7-.5-1-.8h0c-.2-.2-.3-.3-.4-.5-.1-.2-.3-.4-.4-.5-.6-1-1-2.1-1-3.4h0ZM48.2,76.6h-1.4v-.2c-.1,0-5.6-11.7-5.6-11.7l-.3-.6h.6s1.1,0,1.1,0h.3s.1.2.1.2l4.5,9.9,4.2-9.9v-.3h2l-.3.6-5.1,11.7v.2ZM65.8,70.9h-10.7c.1,2.4,2.1,4.2,4.5,4.2s3.5-1.2,4.2-2.8h1.9c-.7,2.6-3.2,4.6-6,4.6s-6.3-2.8-6.3-6.3,2.8-6.3,6.3-6.3,6.3,2.8,6.3,6.3,0,.2,0,.3ZM74.1,65.9h-.7s-.3,0-.3,0c-.5,0-1,0-1.5.3-.1,0-.3.1-.4.2-.1,0-.3.1-.4.2-.3.2-.6.4-.9.7-.5.5-.9,1.1-1.1,1.8-.1.3-.2.7-.2,1.1v6.6h-1.8v-6.5c0-1,.4-2.2,1-3.1.1-.2.2-.4.4-.5.1-.2.3-.3.4-.5h0c.3-.3.7-.6,1-.9.1-.1.3-.2.5-.3.2,0,.3-.2.5-.2.8-.3,1.6-.5,2.4-.5h1v1.8ZM74.3,55.5c-.2-.2-.3-.3-.5-.5-.1-.2-.3-.4-.4-.6-.6-1-1-2.1-1-3.4v-11.1h1.8v4.9h4.2s.3,0,.3,0c.9,0,1.7.2,2.4.5.2,0,.3.1.5.2.2,0,.3.2.5.3.4.2.7.5,1.1.8.2.2.3.3.5.5.1.2.3.4.4.5.6,1,1,2.1,1,3.4h0c0,.9-.2,1.7-.5,2.4,0,.2-.1.3-.2.5,0,.1-.2.3-.3.5-.2.4-.5.7-.8,1h0c-.2.2-.3.3-.5.5-.2.1-.4.3-.6.4-1,.6-2.1,1-3.4,1h0c-.9,0-1.7-.2-2.4-.5-.2,0-.3-.2-.5-.2-.2,0-.3-.2-.5-.3-.4-.2-.7-.5-1-.8h0ZM87.1,70.6c0,1.2-.4,2.4-1,3.4-.1.2-.3.4-.4.6-.1.2-.3.3-.5.5h0c-.3.3-.7.6-1,.9-.2,0-.3.2-.5.3-.2,0-.3.2-.5.2-.7.3-1.6.5-2.4.5h0c-1.2,0-2.4-.4-3.4-1-.2-.1-.4-.3-.6-.4-.2-.1-.3-.3-.5-.5h0c-.3-.3-.6-.7-.8-1.1,0-.2-.2-.3-.3-.5,0-.2-.1-.3-.2-.5-.3-.7-.5-1.6-.5-2.4h0c0-1.3.4-2.4,1-3.4.1-.2.3-.4.4-.5.1-.2.3-.3.4-.5h0c.3-.3.7-.6,1-.8.2,0,.3-.2.5-.3.2,0,.3-.2.5-.2.7-.3,1.6-.5,2.4-.5h4.5v-4.9h1.8c0,3.7,0,7.4,0,11.1ZM87.8,55.5c-.2-.2-.3-.3-.4-.5-.1-.2-.3-.4-.4-.5-.6-.9-1-2.1-1-3.1v-6.5h1.8v6.6c0,.4,0,.7.2,1.1.2.7.6,1.3,1.1,1.8.3.3.6.5.9.7.1,0,.3.1.4.2.1,0,.3.1.4.2.5.2,1,.3,1.5.3h3.2v-10.8h1.8v12.5h-4.9c-.9,0-1.7-.2-2.4-.5-.2,0-.3-.1-.5-.2-.2,0-.3-.2-.5-.3-.4-.2-.7-.5-1-.8h0ZM100.6,70.6c0,1.2-.4,2.4-1,3.4-.1.2-.2.4-.4.6-.1.2-.3.3-.4.5h0c-.3.3-.7.6-1,.9-.2,0-.3.2-.5.3-.2,0-.3.2-.5.2-.7.3-1.6.5-2.4.5h0c-1.2,0-2.4-.4-3.4-1-.2-.1-.4-.3-.6-.4-.2-.1-.3-.3-.5-.5h0c-.3-.3-.6-.7-.8-1.1,0-.2-.2-.3-.3-.5,0-.2-.2-.3-.2-.5-.3-.7-.5-1.6-.5-2.4h0c0-1.3.4-2.4,1-3.4.1-.2.3-.4.4-.5.1-.2.3-.3.4-.5h0c.3-.3.7-.6,1-.8.2,0,.3-.2.5-.3.2,0,.3-.2.5-.2.7-.3,1.6-.5,2.4-.5h4.5v-4.9h1.8v11.1ZM100.6,57.4h-1.8v-17.4h1.8v17.4ZM114.2,70.9h-10.7c.1,2.4,2.1,4.2,4.5,4.2s3.5-1.2,4.2-2.8h1.9c-.8,2.6-3.2,4.6-6,4.6s-6.3-2.8-6.3-6.3,2.8-6.3,6.3-6.3,6.3,2.8,6.3,6.3,0,.2,0,.3Z"/>
  <path class="st0" d="M103.6,52.5c0,.1,0,.2.1.3.2.5.6,1,1,1.4.3.3.6.5.9.7.1,0,.2.1.4.2.1,0,.3.1.4.2.5.2,1,.3,1.5.3h4.5v-4.5h0c0-.5,0-1-.2-1.4,0-.1,0-.2-.1-.3h0c-.2-.5-.6-1-1-1.4-.3-.3-.6-.5-.9-.7-.1,0-.3-.1-.4-.2-.1,0-.3-.1-.4-.2-.4-.1-.8-.2-1.2-.2h0s-.3,0-.3,0h-.3c-.4,0-.8.1-1.2.2-.1,0-.2,0-.3.1-.5.2-1,.6-1.4,1-.3.3-.5.6-.7.9,0,.1-.1.2-.2.4,0,.1-.1.3-.2.4-.1.4-.2.8-.3,1.2h0v.3h0v.3h0c0,.4.1.8.2,1.2Z"/>
</svg>