<?xml version="1.0" encoding="UTF-8"?>
<svg id="Camada_1" xmlns="http://www.w3.org/2000/svg" version="1.1" viewBox="0 0 152 114">
  <!-- Generator: Adobe Illustrator 29.0.1, SVG Export Plug-In . SVG Version: 2.1.0 Build 192)  -->
  <defs>
    <style>
      .st0 {
        fill: #747474;
      }
    </style>
  </defs>
  <path class="st0" d="M150.9,52.1c-.2-.3-.5-.6-.8-.8-.7-.4-1.5-.4-2.2,0-.3.2-.6.5-.8.8-.4.7-.4,1.5,0,2.2.2.3.5.6.8.8.7.4,1.5.4,2.2,0,.3-.2.6-.5.8-.8.4-.7.4-1.5,0-2.2ZM150.6,54.2c-.2.3-.4.5-.7.7-.6.3-1.3.3-1.8,0-.3-.2-.5-.4-.7-.7-.3-.6-.3-1.3,0-1.8.2-.3.4-.5.7-.7.6-.3,1.2-.3,1.8,0,.3.2.5.4.7.7h0c.3.6.3,1.3,0,1.8Z"/>
  <path class="st0" d="M149.7,53.8c0-.2-.2-.4-.4-.5h0c.3,0,.5-.3.5-.6,0-.2,0-.3-.2-.5-.2-.2-.5-.2-.7-.2-.2,0-.4,0-.6,0v2.4h.3v-1.1h.3c.3,0,.4.1.5.5,0,.2,0,.4.2.6h.3c0-.2-.1-.4-.2-.7h0ZM148.9,53.2h-.3v-.9c.1,0,.2,0,.3,0,.3,0,.6.1.6.5,0,0,0,0,0,0,0,.3-.3.4-.6.4Z"/>
  <path class="st0" d="M144.6,57.3c-1.8,1.9-4.1,3.6-6,3.6s-1.1-1.9-.3-3.3c1.1,0,6.5-1.5,6.5-4.7,0-1-.9-1.9-1.9-1.9-1.5,0-3.9,1.2-5.6,3.2-1.6,1.5-3,2.8-3.9,2.8.6-.9.9-1.9,1-3,0-1.3-1-2.7-1.9-2.7s-2.7,1.5-2.7,3.2.4,2,1.3,2.6c-.6,1.2-2.3,3.7-3.7,3.7s-1.1-.2-1.1-1,0-.6.5-1.4c0,0,3-6.4,3.1-6.6.5-.9-2.8-.3-3.4,1-3.6,5.1-6.1,8-7.3,8s-.8-.3-.8-.7c0-.4.1-.9.3-1.3l3.5-7.2c.3-.9-2.8,0-3.7,1.4-.5.9-1.1,2-1.6,3.1-.9,1.6-3.2,4.8-5.2,4.7-1.5,0-.7-1.7-.6-2h0c0-.1,2.3-4.2,2.3-4.2.2-.3,2.2-3-.5-3.2-.8,0-1.8,1.2-3.5,2.6.7-.8,1.1-1.6,1.1-2.2,0,0,0,0,0,0,0-.4-.4-.8-.8-.8-.9,0-1.8,1.3-1.8,2.4s.2.9.4,1.1c-1,1.4-4.5,5.7-7.5,6.9-.7.4.6,1.1,1.7.3,2.3-1.3,5.3-5.5,6.4-7.1,1-.1,1.2-1,1.9-1s.1,0,.1.2c0,.5-.7,1.5-1.4,2.7-.8,1.3-1.3,2.1-1.4,3-.2,1.1.2,2.6,2.1,2.6s2.8.2,5.6-3.2c0,.4-.1.8-.1,1.2,0,1.3,1.1,2,2.2,2,2.5.1,4.6-3,6.8-5.9-.2.3-.3.5-.3.5-.9,2.1-1.5,4.8,1.1,5.4,3.2.8,6.4-2.5,7.6-4.6,1.1,0,2-.6,2.8-1.3-.4.9-.7,1.9-.7,2.9,0,1.5,1.1,3,2.9,3h0c2.2,0,5.1-2.3,7.1-4.7.7-.8,0-.7-.5-.3ZM142.3,51.5c.5,0,.7.3.7.8h0c0,1.2-2.6,4.3-4.5,4.3,1.7-3.4,2.8-5.1,3.8-5.1ZM108.6,54.1c-.2,0-.4-.1-.4-.6s.6-1.9,1.3-1.9c0,0,0,0,0,0,.2,0,.3.1.3.3,0,.5-.6,1.4-1.2,2.2ZM132.5,53.8c0,.5-1.4,2.9-1.4,2.9-.6-.5-.9-1.2-.9-2,0-1.1.7-2.3,1.5-2.3s.9.9.8,1.4Z"/>
  <path class="st0" d="M109.6,51.6s0,0,0,0c-.7,0-1.3,1.3-1.3,1.9s.2.6.4.6c.6-.8,1.2-1.7,1.2-2.2,0-.2,0-.3-.3-.3Z"/>
  <path class="st0" d="M121.5,50.5c.7,0,1.3-.7,1.3-1.5,0,0,0,0,0,0,0-.5-.4-.9-.9-.9-.7,0-1.3.6-1.3,1.4,0,.6.4,1,1,1Z"/>
  <path class="st0" d="M106.2,51.1c0-3.7-3.7-5.4-3.8-5.4,1.4-.7,2.9-1.1,4.5-1.2,1.7,0,3.4.2,5,.6.1,0,.3.2.4,0,0-.1-.3-.2-.3-.2-2-.7-3.3-1-5.1-.9-2.6.1-5.2,1.3-5.2,1.3,0,0-2.9-1.6-7.7-1.4-3.3.1-5.6,1.3-6.9,2.3.2.1.4.3.6.4,1.1-.9,3.1-1.9,6.3-2.1,4.4-.2,6.7,1.5,6.7,1.5-4.3,2.6-6.3,6.3-7,7.5-.1.2-.4.8-.8,1.7-.4-2.6-1.7-5-3.7-6.7-4.5-3.7-11.2-3.1-15,1.4-3.7,4.5-3.1,11.2,1.4,15,4.5,3.7,11.2,3.1,15-1.4h0c-3.1,5.3-9.8,7.1-15.1,4.1,1.7,1.6,4.1,2.8,7.4,2.8,5.8,0,11.6-4.3,13.5-11.9.8,0,1.6,0,2.4,0,4.6-.2,7.7-3.6,7.6-7.3ZM89.4,56.5c0,3.9-3.2,7.1-7.2,7.1-3.9,0-7.1-3.2-7.1-7.2,0-3.9,3.2-7.1,7.2-7.1h0c3.9,0,7.1,3.2,7.1,7.1,0,0,0,0,0,0ZM96.5,56.8c.8-2.3,1.5-7.8,5-10.1,1.5.4,4.8,9.4-5,10.1Z"/>
  <path class="st0" d="M82.3,51.7h0c-2.6,0-4.7,2.1-4.7,4.7,0,0,0,0,0,0,0,2.6,2.1,4.7,4.8,4.7,2.6,0,4.7-2.1,4.7-4.8,0-2.6-2.1-4.7-4.8-4.7ZM82.3,57.3c-.5,0-.8-.4-.8-.8h0c0-.5.4-.8.8-.8h0c.5,0,.8.4.8.8,0,.5-.4.8-.8.8ZM83.5,55.1s0,0,0,0c-.3-.3-.7-.4-1.1-.4h0c-1,0-1.7.8-1.7,1.8,0,.5.2.9.5,1.3-.1,0-.2,0-.3,0-1.5,0-2.7-1.2-2.7-2.7s1.2-2.7,2.7-2.7c1.5,0,2.7,1.2,2.7,2.7h0Z"/>
  <path class="st0" d="M71,50.9c-.2-.4-.7-.6-1.1-.5h-2.9c-.5,0-.9.1-1.1.5-.6,1.7-2.7,7.6-3.7,10.5l-2.4-3.6c.7-.2,1.3-.6,1.7-1.2.4-.6.6-1.4.6-2.2,0-.3,0-.6,0-.9-.2-1.1-.6-2-1.1-2.5-.6-.5-1.5-.7-2.8-.7h-5.8c-.8,0-.8.7-.8.9v10.8c0,.8-.2,1.1.7,1.1h3.2c.9,0,.6-.4.7-.9v-3l1.4,3.1c.3.6.1.8,1.1.8h4.2c0,0,.1,0,.2,0h3.1c.4,0,.6-.1.7-.5,0-.3.1-.7.2-.9,0-.1,0-.3.3-.3h3.3c-1.8-4.8-.4-8.4.6-10.1,0-.1,0-.2-.1-.4ZM57.6,55.3c0,.2-.2.4-.4.5-.2.1-.5.2-.7.2h-.5v-2.3h.4c.8,0,1.2.4,1.2,1.1,0,.2,0,.3,0,.5ZM67.5,57.9l1-3.3,1,3.3h-1.9Z"/>
  <path class="st0" d="M49.8,59.6h-4.8v-1.3h3.6c.7,0,.6-.3.6-.7v-2.1c0-.4,0-.6-.6-.6h-3.6v-1.1h4c.7,0,.6-.2.8-.8.2-.7.6-2.1.6-2.1,0,0,.3-.7-.7-.6h-8.5c-1,0-.8.3-.9.9v10.5c-.3-2.1-1.4-8.9-1.7-10.7-.1-.6-.3-.7-.8-.7h-3.3c-.6,0-.6.3-.8.7-.7,2.5-1.6,5.1-1.6,5.1,0,0-.6-1.6-1.6-5.1-.2-.5-.2-.8-.9-.7h-3.3c-.5,0-.6.3-.7.7-.3,2-1.3,8.2-1.7,10.8-.9-2.7-3.2-9.1-3.8-11-.2-.4-.7-.6-1.1-.5h-2.9c-.5,0-.9.1-1.1.5-.6,1.8-2.8,7.9-3.8,10.7,0-.2,0-.3-.1-.4l-.7-2.1c-.2-.5-.2-1-1.1-.6-.5.3-1.1.4-1.7.4-.7,0-1.5-.4-1.9-1-.3-.4-.4-.8-.4-1.3,0-.6.2-1.2.7-1.7.5-.4,1.1-.7,1.7-.7.1,0,.3,0,.4,0,.1,0,.3,0,.4.1.3,0,.5.2.7.3.8.4.9-.1,1.1-.5l.7-2c.3-.5.5-.9-.3-1.3-1-.6-2.1-.9-3.3-.9,0,0-.2,0-.3,0-.1,0-.4,0-.7,0-1.4.2-2.6.8-3.6,1.7-1,.9-1.6,2-1.9,3.3-.1.5-.2,1-.2,1.4,0,1.5.5,3,1.5,4.2,1,1.2,2.5,2,4,2.2.4,0,.8.1,1.2.1,1.1,0,2.2-.3,3.2-.8,0,0,.2,0,.2-.1,0,0,0,.2,0,.2,0,.2-.3.5.2.5h4c.4,0,.6-.1.7-.5,0-.3.1-.7.2-.9,0-.1,0-.3.3-.3h2.5c.3,0,.3,0,.3.3,0,.2.1.7.2.9,0,.5.3.5.6.5h4s0,0,.1,0c0,0,.2,0,.3,0h3.2c.7,0,.7-.7.7-.7l.6-4.6,1.4,4.6s.1.7.8.7h1.9c.7,0,.8-.7.8-.7l1.2-4.6.8,4.6s.1.7.8.7h3.6s8.4,0,8.4,0c.9,0,.9-.4,1-.9.2-.6.4-1.3.6-1.9.2-.5,0-.7-.5-.7ZM16.7,57.9l1-3.3.9,3.3h-1.9Z"/>
</svg>