<?xml version="1.0" encoding="UTF-8"?>
<svg xmlns="http://www.w3.org/2000/svg" version="1.1" viewBox="0 0 152 114">
  <defs>
    <style>
      .cls-1 {
        fill: #797879;
      }

      .cls-2 {
        fill: #7b7b7b;
      }

      .cls-3 {
        fill: #717071;
      }

      .cls-4 {
        fill: #8b8b8b;
      }

      .cls-5 {
        fill: #787878;
      }

      .cls-6 {
        fill: #858586;
      }

      .cls-7 {
        fill: #474646;
      }

      .cls-8 {
        fill: #818181;
      }

      .cls-9 {
        fill: #7e7f7f;
      }

      .cls-10 {
        fill: #545453;
      }

      .cls-11 {
        fill: #3e3e3e;
      }

      .cls-12 {
        fill: #727272;
      }

      .cls-13 {
        fill: #7d7c7c;
      }

      .cls-14 {
        fill: #777677;
      }

      .cls-15 {
        fill: #909191;
      }

      .cls-16 {
        fill: #737272;
      }
    </style>
  </defs>
  <!-- Generator: Adobe Illustrator 28.7.1, SVG Export Plug-In . SVG Version: 1.2.0 Build 142)  -->
  <g>
    <g id="Camada_1">
      <g id="drive_xA0_Imagem">
        <g>
          <path class="cls-13" d="M117.3,113.1c0,.3-.2.6-.4.8H35c-.2-.3-.3-.5-.3-.8,1.8-2,4.2-1.7,6.5-1.8,23.2,0,46.4,0,69.6,0,2.3,0,4.7-.3,6.5,1.8Z"/>
          <path class="cls-7" d="M94,0c0,.2-.2.4-.2.7,0,.1,0,.2.2.4-1.4,1.5-3.3,1.5-5.1,1.5-8.3,0-16.6.1-25,0-1.8,0-3.7,0-5-1.7.1-.3.2-.6.2-.9,11.7,0,23.3,0,35,0Z"/>
          <path class="cls-10" d="M33,112.2c-2.9-.6-4.4-2.9-5.7-5.2-4.3-7.3-8.4-14.7-12.7-21.9-3-5.1-3-9.9,0-15C26.7,49.2,38.8,28.2,50.9,7.3c1.2-2.2,2.6-4.2,5.2-5.1,1.2.3,2.1,1,2.7,2,5.7,10.6,12.6,20.5,17.7,31.5.1.5.1,1,0,1.4-1.6,5.2-4.7,9.5-7.4,14.1-4.8,8.4-9.4,16.8-14.6,25-.2.4-.5.7-.8,1.1-.5.7-.9,1.4-1.3,2.2-.6,1.1-1.1,2.3-1.7,3.4-1.6,2.4-2.9,5.1-4.2,7.6-3.3,5.7-6.7,11.3-10,17-1,1.7-1.7,3.6-3.5,4.6Z"/>
          <path class="cls-14" d="M33,112.2c3.5-7.9,8-15.2,12.9-22.3,2.3-2.1,3-5.1,4.6-7.5.6-1.1,1.6-1.9,1.5-3.3.2-.7.4-1.4.6-2.1,15.3-.5,30.6-.6,45.9,0,1.4.4,2.3,1.5,3.1,2.7,1,1.9,2.5,3.6,2.8,5.8,0,1.6.8,2.8,2.3,3.3,1,.7,1.2,1.8,1.3,2.9.2,2,1.2,3.6,2.8,4.8,1.7,2.1,3.3,4.4,4.1,7,.4,2.1,1.2,3.8,3.3,4.7,1.6,1.3,2,2.8.6,4.5-.5.2-1.1.3-1.6.5-27.5,0-55.1,0-82.6,0-.7,0-1.4-.1-1.7-.9Z"/>
          <path class="cls-11" d="M76.1,36.1c-5.7-9.6-11.3-19.2-17-28.8-1-1.7-2-3.4-3.1-5.1.7-.8,1.6-1.3,2.7-1.3,11.7,0,23.4,0,35.1.1.9,0,1.6.2,2,1,.7,1.8-.3,3.2-1.1,4.7-5,8.8-10.3,17.4-15.2,26.3-.8,1.4-1.5,3.1-3.5,3.1Z"/>
          <path class="cls-4" d="M76.1,36.1c6.6-11.3,13.2-22.7,19.8-34,2.5.9,4,2.9,5.3,5,12.2,21.1,24.4,42.3,36.6,63.5.6,1,.8,2.1,1.2,3.2.7,3.8-2.3,3.4-4.4,3.4-11.3,0-22.6.3-33.9,0-1.9-.2-3.4-1.1-4.4-2.8-6.4-11.2-13-22.3-19.3-33.5-.7-1.2-1.1-2.4-1-3.8,0-.3,0-.6.1-1Z"/>
          <path class="cls-8" d="M118.9,112.6c0-1.5.6-3.4-1.9-3.7-1.3-1.5-1.5-3.6-3-5-.7-2.7-2.4-4.8-4-7-1-1.3-1.7-2.7-2-4.3-.3-1.6.2-3.6-2-4.3-1.1-.5-1.6-1.4-2-2.4-1-1.7-2-3.3-3-5,.9-2,2.4-3.2,4.6-3.2,10.5-.2,20.9-.4,31.4,0,.7,0,1.3.4,1.8.8.8.8.7,1.8.3,2.7-4.3,9.7-10.1,18.6-15.6,27.6-1,1.7-2.6,3-4.6,3.7Z"/>
          <path class="cls-15" d="M139.1,81.3c0-.8-.2-1.6-.2-2.3-.4-.4-.9-.7-1.5-.8-12.2-.2-24.4-.3-36.5,0-.3,0-.6,0-.9-.1-13.9,0-27.8,0-41.7,0-1.9,0-4,.7-5.6-1.1,0,0,.4,0,.4,0,1.6-1,3.3-1.6,5.1-1.5,13.6.2,27.3-.6,40.9.5,11.7,0,23.4,0,35.1,0,1.8,0,4.2.9,4.7-2.1,1.2,2.5,1.4,4.9.1,7.5Z"/>
          <path class="cls-1" d="M51,82c-1.1,3-1.6,6.4-5.1,7.9.7-3,2.5-5.4,4.1-7.9.3-.4.6-.4.9,0Z"/>
          <path class="cls-5" d="M51,82c-.3,0-.6,0-.9,0,.6-1,1.3-2,1.9-3,1.8,1.7,0,2.2-1,3Z"/>
          <path class="cls-9" d="M138.9,78c0,.3,0,.6,0,1-9.7,0-19.4,0-29.1,0-3.1,0-6.2,0-8.8,2-.3-1-.7-2-1-2.9,0,0,0,0,0,0,11.7-1.1,23.4-.2,35-.5,1.3,0,2.7-.3,3.8.5Z"/>
          <path class="cls-12" d="M108.9,92c.3,1.7.7,3.3,1,5-2.1-1-2.7-2.9-3-5,.7-.6,1.3-.6,2,0Z"/>
          <path class="cls-16" d="M113.9,103.9c2.8.6,2.3,3.2,3,5-2-1-2.7-2.9-3-5Z"/>
          <path class="cls-3" d="M103.9,86c1,.4,1.6,1,2,2,.3.2.5.4.3.7-.1.2-.2.3-.3.3-2.6.3-2.3-1.3-2-3Z"/>
          <path class="cls-2" d="M106,89c0-.3,0-.7,0-1,2.4.3,2.7,2.2,3,4-.7,0-1.3,0-2,0,0-1.1.2-2.3-1-3Z"/>
          <path class="cls-6" d="M138.9,78c-13,0-25.9,0-38.9,0,.6-.3,1.1-.9,1.7-.9,11.9,0,23.7,0,35.6,0,.5,0,1.1.6,1.6.9Z"/>
        </g>
      </g>
    </g>
  </g>
</svg>