<?xml version="1.0" encoding="UTF-8"?>
<svg id="Camada_1" xmlns="http://www.w3.org/2000/svg" version="1.1" viewBox="0 0 152 114">
  <!-- Generator: Adobe Illustrator 29.0.1, SVG Export Plug-In . SVG Version: 2.1.0 Build 192)  -->
  <defs>
    <style>
      .st0 {
        fill: #747474;
      }
    </style>
  </defs>
  <path class="st0" d="M87.9,46.4c-.2,3.2-4.1,15-3,17.2s3,.3,3.8-.6,1.5-2.9,1.8-4.2,2.3-9.7,2.2-10.2c-.2-.9-2-.6-2.8-.6v-1.2s12.5-.4,12.5-.4l-4.1,20.8h-9.7c1.1-4.7-2.5-.5-4.8.2s-8.2,1-8.9-2.4,2.4-11.5,2.8-16.1l-.4-.8-1.6-.2v-1.2s12.1-.4,12.1-.4Z"/>
  <path class="st0" d="M10.9,56c-3.2,13.4,6.9,13,13.1,4.4l.6.6c-5.3,10.4-28.7,10.1-23.9-5.3s12.2-10.5,19.5-9.1c4.3.8,7.5,5.4,5.4,9.4h-14.7ZM16.8,48.1c-3.3-2-5.2,2.9-5.5,5.4s2.5,1.5,3.7,1.3c2.3-.4,2.7-5,1.7-6.7Z"/>
  <path class="st0" d="M136.7,56c-.7,2.3-1.2,9.3,1.6,10.2,4.6,1.5,9-2.6,11.5-5.8,2-.8-1.3,3.3-1.6,3.6-4.1,3.9-10.9,4.9-16.3,3.4-8.7-2.4-7.1-13-1.2-17.6s22.6-6.2,21.3,5.5l-.5.7h-14.7ZM142.6,48.1c-3.3-2.9-6.5,5.6-5.2,6.5s2.8.3,3.4.2c2.1-.4,2.5-5,1.7-6.7Z"/>
  <path class="st0" d="M128.2,46.8c.2,1.5-.8,2.7-1.6,3.8-3.1,4-7.4,7.9-10.7,11.8s-2.1,2.5-2.2,3c0,.8,0,.5.6.6,2,.3,4.9,0,6.6-1s2-2.3,2.6-2.2l3,4.4h-25v-1.3c0,0,14.5-17,14.5-17,.3-1.8-4.2-.6-5.1-.2-2.1.9-4,3.6-4.6,5.8l-1.2.3,1.6-8h21.4Z"/>
  <path class="st0" d="M51.2,46.8v1.7c-.1,0-14.5,16.9-14.5,16.9,0,.8,0,.5.6.6,2,.3,4.9,0,6.6-1s2-2.3,2.6-2.2l3,4.4h-25c0-1.5,1.2-2.7,2-3.8,3.4-4.5,8.5-8.8,11.7-13.2s1.4-2.1.6-2.2c-3.4-.3-6.1.9-8,3.6s-1,3.6-2.6,3.2l1.6-8h21.4Z"/>
  <path class="st0" d="M61.6,46.5c4-.5,12.7-.5,12.2,5.3s-12,5.7-8.8-.4,2.5-1.7,1.8-3.1c-1.4-2.7-4.9.7-5.7,2.8s-2.5,10.5-2.2,12.6c.7,4.5,7.1,2.6,9.6.8s4.1-4.5,4-2.4-2.6,2.6-3.1,2.9c-2.3,1.7-5.1,2.7-8,2.9-18.7,1.1-14.4-19.6,0-21.6Z"/>
  <path class="st0" d="M147.1,45.2c-1.7.3-3.6-2-5-2s-3.4,1.6-4.9,2-1.2.3-.9-.5,4.2-3.9,4.4-4c3.6-1.6,5.9,1.5,6.4,4.6Z"/>
</svg>