<?xml version="1.0" encoding="UTF-8"?>
<svg id="Camada_1" xmlns="http://www.w3.org/2000/svg" version="1.1" viewBox="0 0 152 114">
  <!-- Generator: Adobe Illustrator 29.0.1, SVG Export Plug-In . SVG Version: 2.1.0 Build 192)  -->
  <defs>
    <style>
      .st0 {
        fill: #5d5c5c;
      }
    </style>
  </defs>
  <path class="st0" d="M75.2,19.7c.8,14.1-10.4,17.2-22.1,13s-12.1-5.8-21.4-4.8c-18.1,1.8-17.7,23.3-.6,21.9,4.3-.4,5.7-6.2,8.2-9.3,3.2-4.1,7.8-8.4,13.4-6.3,0,2-2.4,1.4-3.8,3-1.9,2.3-3.4,7.4-5,10.1,4.5-.4,9.1-3.1,13.8-1.6s-2.7,16.9-3.5,20.9.8,3.1,3.1,2.4,7-16.9,9.1-20.3c2.3-3.8,5.4-3.8,9.5-3l-8.8,22.5,1,1.5c6,.2,5.3-5.8,6.8-9.9,2.4-6.6,8.1-13.8,15.6-14.4,13.2-1,8,16.7-1.9,18.1s-4.8,0-7.1,0c-1.3,9,8.2,10.3,13.8,5.3,2.6-2.3,1.5-3.6,2.5-6.2,2.7-7.2,7.9-16.4,16.5-17.2,4-.4,5.2,1.7,5.6,1.7s6.2-3.2,8.5-1.7l-8.8,23.7c6.7.6,6-5.6,8-10.4,2.4-5.8,7.6-12.4,14.2-13.3,18.2-2.5,8.9,26.1-4.5,29.9-5.1,1.5-10.1.8-11.5-5-1.2,2.1-7.5,2.8-8,3.2s-1.4,3.9-2.1,5.1c-1.3,2.1-3,4.8-4.9,6.4-6.8,5.8-18.8,6-15.8-5.8.5-2.2,4.4-6.3,2.7-7.6s-5.2,2.7-6.5,3.2c-5.5,1.9-14.8,2.6-16.6-4.4-3.5,2.5-7.3,6.4-12,5.5s-3.9-1.6-3.6-3.6c-3.5,3.7-12.5,6.3-13.5-.6-.7-4.9,7.9-19.8,6.4-21.9-3.8-1.9-7.8,1.2-11.6,2.2-9.5,2.6-30.3,3-30.1-11.2.2-14.3,20-17.5,31-16.5s18.4,6.5,28.3.7l5.8-5.1ZM92.1,48.5c-2.2-2.3-9,10.2-9.4,11.9,7,1.8,9.6-6.3,9.4-11.9ZM143.2,48.5c-4.5.4-10.4,16.7-10.5,20.9s1,3.6,3.4,2.1c1.9-1.2,5.4-8.2,6.3-10.6.7-1.8,4.4-12.7.7-12.4ZM119,49.7c-4.5-1.3-7.1,1.8-9.4,5.3s-7.2,13.7-4.4,15.7c2.5.9,5.1-.1,6.6-2.2s7.9-18,7.2-18.7ZM109.6,74.1c-2.9,1.7-5.7,2.5-9,1.4-2.1.4-6.7,10.8.5,9.8s7.4-7.7,8.5-11.2Z"/>
  <path class="st0" d="M40.2,54.7c.7.7-6.8,15.1-7.9,16.8-4.4,7.2-11.9,16.5-21.2,16.3-15.2-.3-13.3-19.3-3.4-25.9,3-2,11.3-4.1,9.7,1.5s-10.7,1.9-13.2,9.3c-2.1,6.1.6,12.6,8,11.1s14.8-20.7,18.1-27.2l9.8-2Z"/>
</svg>