<?xml version="1.0" encoding="UTF-8"?>
<svg id="Camada_1" xmlns="http://www.w3.org/2000/svg" version="1.1" viewBox="0 0 152 114">
  <!-- Generator: Adobe Illustrator 29.0.1, SVG Export Plug-In . SVG Version: 2.1.0 Build 192)  -->
  <defs>
    <style>
      .st0 {
        fill: #747474;
      }
    </style>
  </defs>
  <path class="st0" d="M.7,101.1c1.2-4.3,4.7-6.6,9.2-6.4,2.8.1,5.8,1.7,7,4.3s.7,1.7.2,2.1h-5.5s0-.4-.2-.5c-2.8-2.6-6.5.6-5,3.9.9,2,3.5,2.3,5,.8,0-.5-2.1-.3-2.5-.3v-2.9h8.1c.6.9.3,2.6,0,3.7-.8,2.7-2.8,4.6-5.6,5.1-5,1-9.4-1.4-10.7-6.3v-3.5Z"/>
  <path class="st0" d="M106.7,78.9v-35.7c0-.2-.7-.6-.9-.5-8.9.5-18.6-.7-27.4,0s-.7.1-1.1.2v9.2l.3.3h8.4c1.2,0,.3,1.4-.3,1.9-8.9,7.5-22.4,2.1-25.4-8.8-.2-.6-.3-2.8-.9-2.8h-13.6s-.4.3-.4.4c-.3.7.7,5.5,1,6.6,5.7,20.7,28.8,28.7,46.8,17.1.7-.5,2.3-2,3-1.9s.5.2.5.3v14.7h-47.8c-4.8,0-10.3-5-11.1-9.7-.8-18.5-.1-37.1-.3-55.6.4-4.6,3.4-9,7.8-10.6v36h14.4c.4,0,1.2-3.7,1.5-4.5,5.3-13.4,24.1-13.6,29.6-.3.7,1.7.9,3.4,1.5,5.1h13.8c.5-.4.3-1.2.3-1.7-.6-9.3-7.1-19-15-23.6-10.9-6.4-23.1-5.2-33.4,1.8-.6.4-1.6,1.5-2.3,1.4s-.5-.2-.5-.3V3h47.2c5.6,0,11.3,5.3,11.8,10.8v55.5c-.7,4.2-3.6,8-7.6,9.6Z"/>
  <path class="st0" d="M37.5,94.8c12.6-1.4,13.6,15.5,2.2,16.4s-12.7-15.2-2.2-16.4ZM38.3,99.9c-4.2.7-2.3,7.7,2,5.7s1.6-6.3-2-5.7Z"/>
  <path class="st0" d="M58.2,95.2c3.8.4,5.9,4.6,2.8,7.3,3.4,1.9,2.9,6.6-.8,7.9s-1.6.5-1.8.5h-9.6v-15.6c3,.3,6.5-.3,9.4,0ZM54.4,101.1c3.5.6,3.7-2.4.2-1.8l-.2,1.8ZM54.4,104.6v1.7c.2.6,3.7.7,3.2-1.1s-2.3-.4-3.2-.6Z"/>
  <path class="st0" d="M79.7,110.8h-5.2l-.9-1.8c-.9,0-3.8-.4-4.3.2s-.2,1.2-.7,1.6h-5.1c0,0-.3-.3-.3-.5l5.1-15h.3c0-.1,6.2,0,6.2,0l5.1,14.7v.8ZM72.3,104.8c.1-.1-.5-3.1-1-3.3l-.8,3c.4.5,1.2.2,1.8.3Z"/>
  <path class="st0" d="M151.1,110.8h-5.2l-.9-1.8c-.9,0-3.8-.4-4.3.2s-.2,1.2-.7,1.6h-5.1c0,0-.3-.3-.3-.5l5.2-14.9c.4-.4,5.3-.2,6.3-.1l5.3,14.7v.8ZM143.1,101.8c-.5,0-.3,0-.4.3-.2.4-.6,1.9-.7,2.4-.1.7,1.4.4,1.8.4l-.6-3.1Z"/>
  <path class="st0" d="M103.3,95.2l2.8,9.3,3.2-9.3h5.1c0,0,.4.3.3.5l-5.6,15.2-6-.2-5.2-14.9c0-.2.2-.5.3-.5h5.1Z"/>
  <path class="st0" d="M131.8,110.8h-5.2l-.3-.3v-10.4h-3.4l-.3-.3v-4.3l.3-.3h12.6l.3.3v4.1s-.5.5-.5.5h-3.1l-.3.3v10.4Z"/>
  <polygon class="st0" points="81.3 95.2 86.2 95.2 86.5 95.5 86.5 105.6 86.8 105.9 91.6 105.9 91.9 106.2 91.9 110.5 91.6 110.8 81.3 110.8 81 110.5 81 95.5 81.3 95.2"/>
  <path class="st0" d="M18.8,95.2h5.2l.3.3v10.1l.3.3h4.5s.5.5.5.5v4.1l-.3.3h-10.3l-.3-.3v-15.3Z"/>
  <polygon class="st0" points="116 95.2 121 95.2 121.3 95.5 121.3 110.5 121 110.8 116 110.8 115.7 110.5 115.7 95.5 116 95.2"/>
</svg>