<?xml version="1.0" encoding="UTF-8"?>
<svg id="Camada_1" xmlns="http://www.w3.org/2000/svg" version="1.1" viewBox="0 0 152 114">
  <!-- Generator: Adobe Illustrator 29.0.1, SVG Export Plug-In . SVG Version: 2.1.0 Build 192)  -->
  <defs>
    <style>
      .st0 {
        fill: #747474;
      }
    </style>
  </defs>
  <path class="st0" d="M43.1,0v7.8h8.1v8.4h8.4v8.1h8.1v8.1h16.2v-8.1h8l.4-.4v-7.7h8.1v-8l.4-.4h8V0h8.4v8.1h-8.1v8.4h-8.4v8.1h-8.1v15.9h8.1v16.5h8.1v-8.4h8.1v-8.1h16.8v49.2h-8.1v7.7l-.4.4h-8.3v-8.4h8.4v-15.9h-8.1v8.1h-8.1v8.1h-8.4v16.5h-8.1v7.8h-8.7v-8.1h8l.4-.4v-7.7h-32.8v8.1h8.1v8.1h-8.4v-7.8h-8l-.4-.4v-16.1h-8.1v-8.1h-8.4v-8.1h-7.8v15.9h8.1v8.4h-8.4v-8.1h-8.1v-49.2h16.5v8.1h8l.4.4v8h7.8v-16.5h8.4v-15.9h-8.4v-8.1h-8.1v-8.4h-8.4V0h8.7ZM67.7,57h-8.4v8.1h8.4v-8.1ZM92.4,57h-8.4v8.1h8.4v-8.1Z"/>
</svg>