<?xml version="1.0" encoding="UTF-8"?>
<svg xmlns="http://www.w3.org/2000/svg" version="1.1" viewBox="0 0 152 114">
  <defs>
    <style>
      .cls-1 {
        fill: #747474;
      }
    </style>
  </defs>
  <!-- Generator: Adobe Illustrator 28.7.1, SVG Export Plug-In . SVG Version: 1.2.0 Build 142)  -->
  <g>
    <g id="Camada_1">
      <g id="photoshop_xA0_Imagem">
        <g>
          <path class="cls-1" d="M121.3,0H31.3h91-1Z"/>
          <path class="cls-1" d="M133.3,18.8v83.4h0V18.8Z"/>
          <path class="cls-1" d="M133.3,18.8v-6.8C133.3,5.7,128.4.5,122.2,0c-30.3,0-60.6,0-90.9,0s-11.9,5.4-11.9,12v90c0,6.6,5.4,12,12,12h90c6.6,0,11.9-5.3,12-11.9V18.7h0ZM80.2,53c-2.8,4.4-7.1,6.8-12,8.3-4.7,1.4-9.5,1.7-14.3,1.4h-1.6v22.5h-14.2V23.9c0-.8.2-1,1-1.1,7.5-1.1,15-1.4,22.6-1,4.2.2,8.2,1,12,2.9,5.9,3.1,9.1,8.1,9.7,14.6.5,4.9-.4,9.6-3.1,13.8h0ZM118.7,71.9c-.3,5.5-3.2,9.3-8,11.7-4,1.9-8.2,2.4-12.6,2.3-4,0-8-.7-11.8-2.2-1.5-.6-2.1-1.7-1.7-3.3.6-2.4,1.2-4.8,1.8-7.2,0-.2,0-.4.2-.8,3.1,1.7,6.3,2.7,9.6,3.2,1.8.3,3.7.3,5.5,0,2.4-.6,3.5-2.3,3-4.5-.2-1-.8-1.7-1.7-2.1-1.1-.6-2.3-1.2-3.5-1.6-2.9-1.1-5.8-2.1-8.4-3.8-2.6-1.8-4.6-4-5.6-7-1.6-5.2.6-11.3,5.4-14.7,3.2-2.3,6.8-3.4,10.6-3.6,4.9-.3,9.7.3,14.3,2.2.6.2.8.5.6,1.2-.8,3-1.5,6-2.3,9-.3,0-.5-.2-.7-.3-2.7-1.3-5.5-2.2-8.4-2.2s-2.7.2-4,.5c-1.2.3-2,1.3-2.2,2.7s.4,2.4,1.5,3.1c1.3.7,2.7,1.4,4.1,2,2.5,1.1,5.1,2,7.5,3.3,4.7,2.7,6.9,6.9,6.6,12.2h.2Z"/>
          <path class="cls-1" d="M63.3,33c-2.8-1-5.7-.8-8.6-.6-.8,0-1.6.2-2.4.4v18c0,.5.2.6.6.6,2.8.3,5.5.4,8.3-.2,5.1-1.2,7.9-4.5,8.1-9.6,0-4.2-2-7.3-5.9-8.7h0Z"/>
        </g>
      </g>
    </g>
  </g>
</svg>