<?xml version="1.0" encoding="UTF-8"?>
<svg id="Camada_1" xmlns="http://www.w3.org/2000/svg" version="1.1" viewBox="0 0 152 114">
  <!-- Generator: Adobe Illustrator 29.0.1, SVG Export Plug-In . SVG Version: 2.1.0 Build 192)  -->
  <defs>
    <style>
      .st0 {
        fill: #747474;
      }
    </style>
  </defs>
  <path class="st0" d="M71.2.2c50.4-4.4,80.9,55.8,47.6,94.2-25.6,29.5-73.3,24.9-92.6-9.1C5.5,48.8,29.7,3.9,71.2.2ZM77.3,112.6c49.9-1.5,73.1-64.2,34.8-97.4C77.9-14.4,24.9,7.4,20.4,51.7c.4,2,5.1-1.5,6.7-1.4l-1.2,4.2,3.3-4.2.3,1.8,3-1.8-.6,3,4.8-1.2-2.4,3,5.4-.6-1.8,1.8h4.2s-2.4,2.4-2.4,2.4h4.8c-.2,2.9,2.7,1,2.4,4.5,5.1,1.4,8.2,6,13.1,8.2,3.5-3.8,1.5-7.8,1.5-11.8,0-3.1,1.2-6.5,0-10l-1.8.6.4-1.1c-1.8,0-.4-3.4-.6-4.7s-1.8,0-.6-2l-1.1-1c1.6-1.6,5.1-6.2,4.7-8.4s-4.4-3.6-3.5-4.6c5.5.6,6.1-4.1,10.3-5.7,3.6-1.4,6.4-.6,9.9-1,5.4-.7,7.9-5,13.1.3,1.1,1.1,2.9,4,3,5.5s-1,.3-1,.4c-.1.5.3,1.1.1,1.7-1.8,4.6-3,2.5-5.8,4s-1.1,3.4-1.5,5.2c-.8,3-2.4,2.1-3.3,3.3-3.2,4.6-3.1,15.1-2.4,20.5.4,2.6,2.3,5.1,2.8,7.5,1.5,6.7,1,13.8,1.9,20.5.4,2.9-1,7.7-2.5,10.2-2.5,4.3-8.5,4.7-6.6,11.9Z"/>
</svg>