<?xml version="1.0" encoding="UTF-8"?>
<svg xmlns="http://www.w3.org/2000/svg" version="1.1" viewBox="0 0 152 114">
  <defs>
    <style>
      .cls-1 {
        fill: #5d5c5c;
      }
    </style>
  </defs>
  <!-- Generator: Adobe Illustrator 28.7.1, SVG Export Plug-In . SVG Version: 1.2.0 Build 142)  -->
  <g>
    <g id="Camada_1">
      <path class="cls-1" d="M131.9,57.5c0-14.1,0-28.3,0-42.4,0-8.4-5.2-13.9-13.5-13.9-28.3,0-56.6,0-84.9,0-7.9,0-13.4,5.7-13.4,13.6,0,28.3,0,56.6,0,84.8,0,8,5.6,13.3,13.6,13.3,28.3,0,56.6,0,84.9,0,8.1,0,13.3-5.2,13.3-13.5,0-14,0-27.9,0-41.9ZM70.8,87.2c0,5-1.9,6.9-7,7-7.5.1-15,.1-22.5,0-5.3,0-7-1.9-7-7.4,0-10.6,0-21.3,0-31.9,0-10.6,0-21.3,0-31.9,0-6.6,2.1-8.7,8.6-8.7,6.5,0,13,0,19.5,0,5.9,0,8.4,2.4,8.4,8,0,21.6,0,43.2,0,64.9ZM119.7,56.7c0,5.2-2.2,7.3-7.2,7.4-7.3,0-14.6,0-21.9,0-5.1,0-7.2-2.2-7.3-7.3-.1-5.8,0-11.6,0-17.4,0-5.6,0-11.3,0-16.9,0-5.7,2.2-8,7.7-8,7-.1,14,0,20.9,0,5.5,0,7.7,2.2,7.8,7.5.1,11.6,0,23.3,0,34.9Z"/>
    </g>
  </g>
</svg>